<svg width="135" height="24" viewBox="0 0 135 24" fill="none" xmlns="http://www.w3.org/2000/svg">
<path d="M13.5195 8.25476L15.1587 23H13.4477C12.3415 23 11.3456 22.3971 10.9279 21.4708C9.67634 18.6979 8.14077 15.0637 6.94188 12.1825C5.32274 11.4063 3.75789 10.6597 2.85809 10.2379C2.16966 9.91549 1 9.0302 1 7.99176V1H1.50713C1.50713 1 2.73778 4.7176 3.25075 5.88999C3.61169 6.71592 4.96264 7.0359 5.93514 7.16097L13.2639 8.2299V8.23314C13.4285 8.24678 13.5195 8.25476 13.5195 8.25476ZM28.7486 5.88999C28.3877 6.71592 27.0366 7.0359 26.0642 7.16097L18.7354 8.2299V8.23314C18.5708 8.24678 18.4797 8.25476 18.4797 8.25476L16.8405 23H18.5516C19.6577 23 20.6536 22.3971 21.0713 21.4708C22.323 18.6979 23.8584 15.0637 25.0573 12.1833C26.6765 11.407 28.2413 10.6605 29.1411 10.2387C29.8296 9.91549 31 9.03103 31 7.99176V1H30.4929C30.4929 1 29.2623 4.7176 28.7494 5.88999H28.7486Z" fill="white"/>
<path d="M47.0885 18.6969C48.2894 18.6969 48.8736 18.3096 48.8736 17.5348V9.59375H50.918V17.5348C50.918 19.3426 49.6527 20.2787 47.0885 20.2787H41.3768C38.8131 20.2787 37.5474 19.3426 37.5474 17.5026V9.59375H39.592V17.5026C39.592 18.2773 40.1762 18.6969 41.3768 18.6969H47.0885Z" fill="white"/>
<path d="M52.8687 9.59375H54.7509L61.1114 18.3096L67.4724 9.59375H69.2249V20.2787H67.2778V12.8541L61.8905 20.2787H60.235L54.8158 12.8541V20.2787H52.8687V9.59375Z" fill="white"/>
<path d="M71.2002 9.59375H73.2448V20.2787H71.2002V9.59375Z" fill="white"/>
<path d="M77.2027 12.1439V20.2787H75.2881V9.59375H76.878L87.5553 17.7931V9.59375H89.47V20.2787H87.88L77.2027 12.1439Z" fill="white"/>
<path d="M106.738 20.2787V9.59375H115.241C117.805 9.59375 119.07 10.3685 119.07 11.8857V13.1769C119.07 14.4682 118.194 15.2106 116.409 15.4366L118.94 20.2465H116.766L114.234 15.4689H108.718V20.2787H106.738ZM108.783 11.1755V13.9517H115.241C116.442 13.9517 117.026 13.6934 117.026 13.2092V11.918C117.026 11.4337 116.442 11.1755 115.241 11.1755H108.783Z" fill="white"/>
<path d="M130.335 13.7903C132.899 13.7903 134.165 14.565 134.165 16.0822V17.9868C134.165 19.504 132.899 20.2465 130.335 20.2465H121.184V18.6647H130.335C131.536 18.6647 132.12 18.4387 132.12 17.9545V16.0499C132.12 15.5657 131.536 15.3075 130.335 15.3075H124.623C122.06 15.3075 120.794 14.5327 120.794 13.0155V11.8857C120.794 10.3362 122.06 9.59375 124.623 9.59375H133.483V11.1755H124.623C123.423 11.1755 122.839 11.4337 122.839 11.918V13.0801C122.839 13.5643 123.423 13.8225 124.623 13.8225H130.335V13.7903Z" fill="white"/>
<path d="M105.176 9.59375H91.1567V11.1755H105.176V9.59375Z" fill="white"/>
<path d="M105.176 13.9541H91.1567V15.5358H105.176V13.9541Z" fill="white"/>
<path d="M105.176 18.6982H91.1567V20.28H105.176V18.6982Z" fill="white"/>
</svg>
