<svg id="svg-cart--outline" viewBox="0 0 28 28" fill="none" xmlns="http://www.w3.org/2000/svg">
<path d="M20.403 6.2V3.6H10.0547V6.2M8.76119 21.8C7.33831 21.8 6.17413 22.97 6.17413 24.4C6.17413 25.83 7.33831 27 8.76119 27C10.1841 27 11.3483 25.83 11.3483 24.4C11.3483 22.97 10.1841 21.8 8.76119 21.8ZM21.6965 21.8C20.2736 21.8 19.1095 22.97 19.1095 24.4C19.1095 25.83 20.2736 27 21.6965 27C23.1194 27 24.2836 25.83 24.2836 24.4C24.2836 22.97 23.1194 21.8 21.6965 21.8ZM9.0199 17.64V17.51L10.1841 15.3H19.7562C20.6617 15.3 21.5672 14.78 21.9552 14L27 4.9L24.801 3.6L19.7562 12.7H10.7015L5.26866 1H1V3.6H3.58706L8.24378 13.48L6.43284 16.6C6.30348 16.99 6.17413 17.38 6.17413 17.9C6.17413 19.33 7.33831 20.5 8.76119 20.5H24.2836V17.9H9.27861C9.14925 17.9 9.0199 17.77 9.0199 17.64Z" fill="currentColor"/>
</svg>
