<svg id="svg-immersion" viewBox="0 0 16 16" fill="none" xmlns="http://www.w3.org/2000/svg">
<path d="M13.296 9.98592V11.0297C12.7813 10.864 12.1936 10.9848 11.7854 11.393L11.7789 11.3996C11.4733 11.7052 10.976 11.7052 10.6709 11.4L10.6635 11.3926C10.0834 10.8124 9.13953 10.8124 8.559 11.3931L8.55245 11.3996C8.24687 11.7053 7.74961 11.7053 7.44443 11.4L7.43706 11.3927C6.85698 10.8124 5.91309 10.8124 5.33256 11.3931L5.32601 11.3996C5.02043 11.7053 4.52317 11.7053 4.21799 11.4001L4.21062 11.3927C3.80462 10.9866 3.22055 10.8651 2.70747 11.0276V9.98596H2.00343L2 14H14V9.98592H13.296ZM13.296 13.2958H2.70404V11.8062C3.00997 11.5881 3.43857 11.6162 3.71284 11.8906L3.71979 11.8976C4.29989 12.4778 5.24376 12.4778 5.82386 11.8976L5.83081 11.8906C6.13641 11.5849 6.63365 11.5849 6.93923 11.8906L6.94618 11.8976C7.52629 12.4778 8.47015 12.4778 9.05026 11.8976L9.0572 11.8906C9.36278 11.5849 9.86004 11.5849 10.1656 11.8906L10.1726 11.8976C10.7527 12.4778 11.6965 12.4778 12.2766 11.8976L12.2836 11.8906C12.5589 11.6152 12.9899 11.5879 13.2959 11.8087L13.296 13.2958Z" fill="currentColor"/>
<path d="M5.2944 8.87934H5.99845V8.15735L6.70249 8.56391V10.2673H7.40653V8.97046L8.00074 9.31362L9.96795 8.17761V8.95283H10.672V7.77105L11.1669 7.48524V3.8284L8.00074 2L4.83455 3.8284V7.48522L5.2944 7.75077V8.87934ZM5.53859 4.64153L7.64872 5.8601V8.2972L5.53859 7.07866V4.64153ZM8.35276 5.8601L10.4629 4.64153V7.07866L8.35276 8.2972V5.8601ZM10.1109 4.03168L8.00074 5.25024L5.89061 4.03168L8.00074 2.81314L10.1109 4.03168Z" fill="currentColor"/>
<path d="M9.96781 9.66051H10.6718V10.4117H9.96781V9.66051Z" fill="currentColor"/>
</svg>
