<svg id="svg-instagram" viewBox="0 0 24 24" fill="none" xmlns="http://www.w3.org/2000/svg">
<path d="M16.8499 0H7.14891C5.25338 0.00222758 3.43614 0.756295 2.0959 2.09675C0.75567 3.43721 0.00190887 5.25458 0 7.15011V16.8511C0.00222758 18.7466 0.756295 20.5639 2.09675 21.9041C3.43721 23.2443 5.25458 23.9981 7.15011 24H16.8511C18.7466 23.9978 20.5639 23.2437 21.9041 21.9032C23.2443 20.5628 23.9981 18.7454 24 16.8499V7.14891C23.9978 5.25338 23.2437 3.43614 21.9032 2.0959C20.5628 0.75567 18.7454 0.00190887 16.8499 0ZM21.5862 16.8499C21.5862 17.4719 21.4637 18.0878 21.2256 18.6624C20.9876 19.237 20.6388 19.7591 20.1989 20.1989C19.7591 20.6388 19.237 20.9876 18.6624 21.2256C18.0878 21.4637 17.4719 21.5862 16.8499 21.5862H7.14891C5.89298 21.5859 4.68859 21.0867 3.80063 20.1985C2.91266 19.3103 2.41382 18.1058 2.41382 16.8499V7.14891C2.41414 5.89298 2.91328 4.68859 3.80148 3.80063C4.68967 2.91266 5.89418 2.41382 7.15011 2.41382H16.8511C18.107 2.41414 19.3114 2.91328 20.1994 3.80148C21.0873 4.68967 21.5862 5.89418 21.5862 7.15011V16.8511V16.8499Z" fill="currentColor"/>
<path d="M11.9995 6.8365C10.6309 6.83862 9.31903 7.38329 8.3514 8.35111C7.38377 9.31893 6.83935 10.6309 6.8375 11.9995C6.83909 13.3684 7.38352 14.6808 8.3514 15.6489C9.31928 16.617 10.6316 17.1616 12.0005 17.1635C13.3696 17.1619 14.6822 16.6173 15.6502 15.6492C16.6183 14.6812 17.1629 13.3686 17.1645 11.9995C17.1624 10.6306 16.6174 9.31838 15.6492 8.35069C14.6809 7.383 13.3684 6.83882 11.9995 6.8375V6.8365ZM11.9995 15.1555C11.1627 15.1555 10.3603 14.8231 9.76858 14.2314C9.1769 13.6397 8.8445 12.8373 8.8445 12.0005C8.8445 11.1637 9.1769 10.3613 9.76858 9.76958C10.3603 9.1779 11.1627 8.8455 11.9995 8.8455C12.8363 8.8455 13.6387 9.1779 14.2304 9.76958C14.8221 10.3613 15.1545 11.1637 15.1545 12.0005C15.1545 12.8373 14.8221 13.6397 14.2304 14.2314C13.6387 14.8231 12.8363 15.1555 11.9995 15.1555Z" fill="currentColor"/>
<path d="M17.1735 8.1125C17.8567 8.1125 18.4105 7.55868 18.4105 6.8755C18.4105 6.19232 17.8567 5.6385 17.1735 5.6385C16.4903 5.6385 15.9365 6.19232 15.9365 6.8755C15.9365 7.55868 16.4903 8.1125 17.1735 8.1125Z" fill="currentColor"/>
</svg>
