<svg id="svg-link" viewBox="0 0 16 16" fill="none" xmlns="http://www.w3.org/2000/svg">
<path d="M2.29289 12.1923C1.90237 12.5828 1.90237 13.216 2.29289 13.6065C2.68342 13.997 3.31658 13.997 3.70711 13.6065L3 12.8994L2.29289 12.1923ZM13.8995 2.99992C13.8995 2.44763 13.4518 1.99992 12.8995 1.99992L3.8995 1.99992C3.34721 1.99992 2.8995 2.44763 2.8995 2.99992C2.8995 3.5522 3.34721 3.99992 3.8995 3.99992L11.8995 3.99992L11.8995 11.9999C11.8995 12.5522 12.3472 12.9999 12.8995 12.9999C13.4518 12.9999 13.8995 12.5522 13.8995 11.9999L13.8995 2.99992ZM3 12.8994L3.70711 13.6065L13.6066 3.70703L12.8995 2.99992L12.1924 2.29281L2.29289 12.1923L3 12.8994Z" fill="currentColor"/>
</svg>
