<svg id="svg-next" viewBox="0 0 24 24" fill="none" xmlns="http://www.w3.org/2000/svg">
<path d="M2.1001 10.6707C1.36626 10.6707 0.771371 11.2656 0.771371 11.9995C0.771371 12.7333 1.36626 13.3282 2.1001 13.3282V11.9995V10.6707ZM22.8386 12.939C23.3575 12.4201 23.3575 11.5788 22.8386 11.0599L14.3827 2.60393C13.8638 2.08503 13.0225 2.08503 12.5036 2.60393C11.9847 3.12283 11.9847 3.96414 12.5036 4.48304L20.02 11.9995L12.5036 19.5159C11.9847 20.0348 11.9847 20.8761 12.5036 21.395C13.0225 21.9139 13.8638 21.9139 14.3827 21.395L22.8386 12.939ZM2.1001 11.9995V13.3282H21.8991V11.9995V10.6707H2.1001V11.9995Z" fill="currentColor"/>
</svg>
