<svg id="svg-phone" viewBox="0 0 24 24" fill="none" xmlns="http://www.w3.org/2000/svg">
<path d="M3.58824 1H7.8873C8.41722 1 8.89376 1.32263 9.09057 1.81466L10.943 6.44584C11.1793 7.03643 10.952 7.71117 10.4065 8.03843L9.1411 8.7977C8.56275 9.14471 8.34187 9.88107 8.6898 10.4589C9.88708 12.4472 11.5528 14.1129 13.5411 15.3102C14.1189 15.6581 14.8553 15.4373 15.2023 14.8589L15.9616 13.5935C16.2888 13.048 16.9636 12.8207 17.5542 13.057L22.1853 14.9094C22.6774 15.1062 23 15.5828 23 16.1127V20.4118C23 21.0982 22.7273 21.7565 22.2419 22.2419C21.7565 22.7273 21.0982 23 20.4118 23C15.3638 22.6932 10.6026 20.5496 7.02648 16.9735C3.45042 13.3974 1.30677 8.63625 1 3.58824C1 2.90179 1.27269 2.24346 1.75808 1.75808C2.24346 1.27269 2.90179 1 3.58824 1Z" fill="currentColor"/>
</svg>
