<svg id="svg-telegram--fill" viewBox="0 0 40 40" fill="none" xmlns="http://www.w3.org/2000/svg">
<path fill-rule="evenodd" clip-rule="evenodd" d="M33.9182 35.7053V35.7013L33.9545 35.615L40 5.25899V5.16262C40 4.40573 39.7178 3.74521 39.109 3.3497C38.5748 3.00237 37.96 2.97828 37.5286 3.0104C37.1271 3.04688 36.7309 3.12769 36.3473 3.25132C36.1836 3.30334 36.0221 3.36228 35.8635 3.42799L35.8373 3.43803L2.13225 16.6063L2.12217 16.6104C2.01891 16.6431 1.91847 16.684 1.82181 16.7328C1.58224 16.8403 1.35228 16.968 1.13441 17.1143C0.701001 17.4114 -0.123482 18.1101 0.0156113 19.2183C0.130515 20.1378 0.765508 20.7201 1.19488 21.0232C1.44776 21.201 1.72035 21.3492 2.00727 21.4649L2.07178 21.493L2.09194 21.499L2.10605 21.5051L8.00442 23.4826C7.98292 23.852 8.02122 24.2234 8.11933 24.5969L11.0725 35.7575C11.2339 36.3659 11.5825 36.9086 12.0694 37.3095C12.5564 37.7105 13.1572 37.9494 13.7874 37.9928C14.4177 38.0362 15.0458 37.8819 15.5835 37.5516C16.1213 37.2213 16.5416 36.7315 16.7855 36.151L21.3977 31.2403L29.318 37.2874L29.4309 37.3355C30.1506 37.6487 30.8218 37.7471 31.4367 37.6648C32.0515 37.5805 32.5393 37.3235 32.9062 37.0324C33.3307 36.6898 33.6689 36.2533 33.894 35.7575L33.9101 35.7234L33.9162 35.7113L33.9182 35.7053ZM11.0423 23.8299C11.0096 23.7061 11.0174 23.5751 11.0645 23.456C11.1116 23.3368 11.1956 23.2358 11.3044 23.1674L31.3036 10.5191C31.3036 10.5191 32.4809 9.80636 32.4385 10.5191C32.4385 10.5191 32.6482 10.6436 32.0172 11.2278C31.4205 11.7839 17.7632 24.9161 16.3803 26.2452C16.3052 26.3209 16.2517 26.4151 16.2251 26.5182L13.9955 34.9906L11.0423 23.8299Z" fill="currentColor"/>
</svg>
