<svg id="svg-user--outline" viewBox="0 0 28 28" fill="none" xmlns="http://www.w3.org/2000/svg">
<path d="M14 1C12.2928 1 10.6023 1.33625 9.02511 1.98957C7.44788 2.64288 6.01477 3.60045 4.80761 4.80761C2.36964 7.24558 1 10.5522 1 14C1 17.4478 2.36964 20.7544 4.80761 23.1924C6.01477 24.3995 7.44788 25.3571 9.02511 26.0104C10.6023 26.6637 12.2928 27 14 27C17.4478 27 20.7544 25.6304 23.1924 23.1924C25.6304 20.7544 27 17.4478 27 14C27 12.2928 26.6637 10.6023 26.0104 9.02511C25.3571 7.44788 24.3995 6.01477 23.1924 4.80761C21.9852 3.60045 20.5521 2.64288 18.9749 1.98957C17.3977 1.33625 15.7072 1 14 1ZM7.591 22.164C8.15 20.994 11.556 19.85 14 19.85C16.444 19.85 19.85 20.994 20.409 22.164C18.5878 23.6142 16.328 24.4026 14 24.4C11.582 24.4 9.359 23.568 7.591 22.164ZM22.268 20.279C20.409 18.017 15.898 17.25 14 17.25C12.102 17.25 7.591 18.017 5.732 20.279C4.34921 18.4779 3.59976 16.2707 3.6 14C3.6 8.267 8.267 3.6 14 3.6C19.733 3.6 24.4 8.267 24.4 14C24.4 16.366 23.594 18.55 22.268 20.279ZM14 6.2C11.478 6.2 9.45 8.228 9.45 10.75C9.45 13.272 11.478 15.3 14 15.3C16.522 15.3 18.55 13.272 18.55 10.75C18.55 8.228 16.522 6.2 14 6.2ZM14 12.7C13.4828 12.7 12.9868 12.4946 12.6211 12.1289C12.2554 11.7632 12.05 11.2672 12.05 10.75C12.05 10.2328 12.2554 9.73684 12.6211 9.37114C12.9868 9.00545 13.4828 8.8 14 8.8C14.5172 8.8 15.0132 9.00545 15.3789 9.37114C15.7446 9.73684 15.95 10.2328 15.95 10.75C15.95 11.2672 15.7446 11.7632 15.3789 12.1289C15.0132 12.4946 14.5172 12.7 14 12.7Z" fill="currentColor"/>
</svg>
