<svg id="svg-youtube" viewBox="0 0 28 28" fill="none" xmlns="http://www.w3.org/2000/svg">
<path d="M14.0892 3.49805H14.245C15.6835 3.5033 22.9722 3.5558 24.9375 4.0843C25.5316 4.24559 26.073 4.55999 26.5075 4.99606C26.9421 5.43214 27.2546 5.97462 27.4137 6.5693C27.5905 7.2343 27.7148 8.11455 27.7987 9.0228L27.8162 9.2048L27.8547 9.6598L27.8687 9.8418C27.9825 11.4413 27.9965 12.9393 27.9982 13.2665V13.3978C27.9965 13.7373 27.9807 15.3368 27.8547 17.0028L27.8408 17.1865L27.825 17.3685C27.7375 18.3695 27.608 19.3635 27.4137 20.095C27.2546 20.6897 26.9421 21.2322 26.5075 21.6683C26.073 22.1044 25.5316 22.4188 24.9375 22.58C22.9075 23.126 15.1917 23.1645 14.1225 23.1663H13.874C13.3333 23.1663 11.0968 23.1558 8.75175 23.0753L8.45425 23.0648L8.302 23.0578L7.7035 23.0333C5.761 22.9475 3.91125 22.8093 3.059 22.5783C2.4651 22.4172 1.92386 22.103 1.48934 21.6673C1.05482 21.2315 0.742216 20.6894 0.58275 20.095C0.3885 19.3653 0.259 18.3695 0.1715 17.3685L0.1435 17.0028C0.056636 15.817 0.0087768 14.6287 0 13.4398V13.2245C0.0035 12.8483 0.0175 11.548 0.112 10.113L0.12425 9.9328L0.1295 9.8418L0.1435 9.6598L0.182 9.2048L0.1995 9.0228C0.2835 8.11455 0.40775 7.23255 0.5845 6.5693C0.743698 5.97462 1.05618 5.43214 1.49072 4.99606C1.92526 4.55999 2.46664 4.24559 3.06075 4.0843C3.913 3.8568 5.76275 3.7168 7.70525 3.6293L8.00275 3.61705L8.45425 3.6013L8.7535 3.58905C10.419 3.5355 12.0852 3.50575 13.7515 3.4998L14.0892 3.49805ZM11.2 9.11555V17.547L18.4748 13.333L11.2 9.11555Z" fill="currentColor"/>
</svg>
