<svg id="svg-crypto-wallet" viewBox="0 0 48 48" fill="none" xmlns="http://www.w3.org/2000/svg">
<path d="M3.83008 35.7734H10.6287V38.4933H15.1617" stroke="currentColor" stroke-width="2" stroke-linecap="round" stroke-linejoin="round"/>
<path d="M3.81445 22.1752H9.72115V18.5488H13.3475" stroke="currentColor" stroke-width="2" stroke-linecap="round" stroke-linejoin="round"/>
<path d="M3.81445 30.338H12.4409M12.4409 30.338V24.8984H16.0673M12.4409 30.338H21.5068" stroke="currentColor" stroke-width="2" stroke-linecap="round" stroke-linejoin="round"/>
<path d="M20.5999 25.8053C20.0993 25.8053 19.6934 25.3994 19.6934 24.8988C19.6934 24.3979 20.0993 23.9922 20.5999 23.9922" stroke="currentColor" stroke-width="2"/>
<path d="M20.5996 25.8053C21.1004 25.8053 21.5062 25.3994 21.5062 24.8988C21.5062 24.3979 21.1004 23.9922 20.5996 23.9922" stroke="currentColor" stroke-width="2"/>
<path d="M26.0376 19.4558C25.5368 19.4558 25.1309 19.0499 25.1309 18.5492C25.1309 18.0485 25.5368 17.6426 26.0376 17.6426" stroke="currentColor" stroke-width="2"/>
<path d="M26.0371 19.4558C26.5377 19.4558 26.9437 19.0499 26.9437 18.5492C26.9437 18.0485 26.5377 17.6426 26.0371 17.6426" stroke="currentColor" stroke-width="2"/>
<path d="M19.6937 39.3991C19.193 39.3991 18.7871 38.9931 18.7871 38.4925C18.7871 37.9917 19.193 37.5859 19.6937 37.5859" stroke="currentColor" stroke-width="2"/>
<path d="M19.6934 39.3991C20.1941 39.3991 20.5999 38.9931 20.5999 38.4925C20.5999 37.9917 20.1941 37.5859 19.6934 37.5859" stroke="currentColor" stroke-width="2"/>
<path d="M36.0118 23.9884V18.5488H30.5723" stroke="currentColor" stroke-width="2" stroke-linecap="round" stroke-linejoin="round"/>
<path d="M36.9187 34.8672V38.4934H29.666" stroke="currentColor" stroke-width="2" stroke-linecap="round" stroke-linejoin="round"/>
<path d="M41.9051 34.8673V38.4936C41.9051 39.9364 41.332 41.32 40.3118 42.34C39.2918 43.3601 37.9082 43.9331 36.4656 43.9331H9.26769C7.82502 43.9331 6.44144 43.3601 5.42133 42.34C4.40122 41.32 3.82812 39.9364 3.82812 38.4936V19.4552C3.82812 18.0125 4.40122 16.629 5.42133 15.6089C6.44144 14.5887 7.82502 14.0156 9.26769 14.0156H36.4656C37.9082 14.0156 39.2918 14.5887 40.3118 15.6089C41.332 16.629 41.9051 18.0125 41.9051 19.4552V23.9882" stroke="currentColor" stroke-width="2" stroke-linecap="round" stroke-linejoin="round"/>
<path d="M36.4654 14.0163L32.2426 5.5705C32.0828 5.25089 31.8617 4.96589 31.5917 4.73176C31.3219 4.49763 31.0086 4.31896 30.6696 4.20597C30.3306 4.09299 29.9727 4.04789 29.6164 4.07328C29.26 4.09865 28.912 4.19399 28.5925 4.35385L9.26758 14.0163" stroke="currentColor" stroke-width="2" stroke-linecap="round" stroke-linejoin="round"/>
<path d="M42.2071 34.8674C42.8483 34.8674 43.4631 34.6383 43.9165 34.2301C44.3701 33.8221 44.6247 33.2686 44.6247 32.6917V26.1642C44.6247 25.5871 44.3701 25.0336 43.9165 24.6256C43.4631 24.2176 42.8483 23.9883 42.2071 23.9883H36.1632C34.5603 23.9883 33.023 24.5615 31.8895 25.5815C30.7559 26.6017 30.1191 27.9852 30.1191 29.4278C30.1191 30.8705 30.7559 32.254 31.8895 33.2742C33.023 34.2944 34.5603 34.8674 36.1632 34.8674H42.2071Z" stroke="currentColor" stroke-width="2" stroke-linecap="round" stroke-linejoin="round"/>
<path d="M36.0139 30.1078C35.6385 30.1078 35.334 29.8035 35.334 29.4279C35.334 29.0524 35.6385 28.748 36.0139 28.748" stroke="currentColor" stroke-width="3"/>
<path d="M36.0137 30.1078C36.389 30.1078 36.6935 29.8035 36.6935 29.4279C36.6935 29.0524 36.389 28.748 36.0137 28.748" stroke="currentColor" stroke-width="3"/>
</svg>
