<svg id="svg-prev" viewBox="0 0 24 24" fill="none" xmlns="http://www.w3.org/2000/svg">
<path d="M21.8989 10.6707C22.6328 10.6707 23.2277 11.2656 23.2277 11.9995C23.2277 12.7333 22.6328 13.3282 21.8989 13.3282V11.9995V10.6707ZM1.16038 12.939C0.641485 12.4201 0.641485 11.5788 1.16038 11.0599L9.61635 2.60393C10.1353 2.08503 10.9766 2.08503 11.4955 2.60393C12.0144 3.12283 12.0144 3.96414 11.4955 4.48304L3.97904 11.9995L11.4955 19.5159C12.0144 20.0348 12.0144 20.8761 11.4955 21.395C10.9766 21.9139 10.1353 21.9139 9.61635 21.395L1.16038 12.939ZM21.8989 11.9995V13.3282H2.09994V11.9995V10.6707H21.8989V11.9995Z" fill="currentColor"/>
</svg>
