<svg width="110" height="38" viewBox="0 0 110 38" fill="none" xmlns="http://www.w3.org/2000/svg">
<path fill-rule="evenodd" clip-rule="evenodd" d="M107.147 6.23699V6.95267H106.738V5.21459C106.943 5.21459 107.147 5.11235 107.454 5.11235C107.761 5.11235 107.965 5.21459 108.068 5.21459C108.17 5.31683 108.272 5.41907 108.272 5.62355C108.272 5.82803 108.17 5.93027 107.863 6.03251C108.068 6.13475 108.17 6.23699 108.17 6.44147C108.272 6.74819 108.272 6.85043 108.272 6.85043H107.863C107.761 6.74819 107.761 6.64595 107.761 6.44147C107.761 6.23699 107.659 6.13475 107.352 6.13475H107.147V6.23699ZM107.147 5.52131V6.03251H107.352C107.556 6.03251 107.761 5.93027 107.761 5.82803C107.761 5.62355 107.659 5.52131 107.352 5.52131C107.352 5.52131 107.25 5.52131 107.147 5.52131ZM107.454 4.29443C108.476 4.29443 109.294 5.01011 109.294 6.03251C109.294 7.05491 108.476 7.77059 107.454 7.77059C106.432 7.77059 105.614 7.05491 105.614 6.03251C105.614 5.11235 106.432 4.29443 107.454 4.29443ZM107.454 4.70339C106.636 4.70339 106.125 5.31683 106.125 6.03251C106.125 6.74819 106.738 7.36163 107.454 7.36163C108.272 7.36163 108.783 6.74819 108.783 6.03251C108.783 5.31683 108.272 4.70339 107.454 4.70339Z" fill="white"/>
<path fill-rule="evenodd" clip-rule="evenodd" d="M103.16 9.50868C103.16 8.89524 102.853 7.77061 101.626 7.77061C100.502 7.77061 100.093 8.793 99.9906 9.50868H103.16ZM99.9906 11.349C100.093 12.4736 101.115 12.9848 102.444 12.9848C103.364 12.9848 104.08 12.8826 104.796 12.6781L105.103 14.4162C104.182 14.7229 103.16 14.9274 102.035 14.9274C99.1726 14.9274 97.4346 13.2916 97.4346 10.6333C97.4346 8.48628 98.7637 6.13477 101.729 6.13477C104.489 6.13477 105.512 8.2818 105.512 10.3266C105.512 10.7356 105.409 11.1445 105.409 11.349H99.9906Z" fill="white"/>
<path fill-rule="evenodd" clip-rule="evenodd" d="M95.1855 3.88477V6.33852H97.1281V8.28108H95.1855V11.3483C95.1855 12.3707 95.39 12.7796 96.2079 12.7796C96.5146 12.7796 96.8214 12.7796 97.0258 12.6774V14.6199C96.7191 14.7222 96.0034 14.8244 95.2878 14.8244C94.4698 14.8244 93.7542 14.5177 93.3452 14.1087C92.834 13.5976 92.6295 12.7796 92.6295 11.655V8.17884H91.5049V6.23628H92.6295V4.39597L95.1855 3.88477Z" fill="white"/>
<path fill-rule="evenodd" clip-rule="evenodd" d="M87.7216 14.723H90.3798V6.33932H87.7216V14.723ZM90.4821 3.98781C90.4821 4.70349 89.9709 5.31693 89.0507 5.31693C88.2328 5.31693 87.6194 4.70349 87.7216 3.98781C87.7216 3.27213 88.2328 2.65869 89.153 2.65869C89.8686 2.65869 90.3798 3.16989 90.4821 3.98781Z" fill="white"/>
<path fill-rule="evenodd" clip-rule="evenodd" d="M78.9291 11.9619C79.6447 12.3709 80.7694 12.6776 81.894 12.6776C83.1209 12.6776 83.7343 12.1664 83.7343 11.4507C83.7343 10.7351 83.2231 10.3261 81.7918 9.81491C79.747 9.20147 78.5201 8.07684 78.5201 6.441C78.5201 4.49844 80.1559 2.96484 82.9164 2.96484C84.2455 2.96484 85.2679 3.27156 85.8814 3.57828L85.2679 5.72532C84.7567 5.52084 83.9388 5.21412 82.8142 5.21412C81.6895 5.21412 81.0761 5.72532 81.0761 6.33876C81.0761 7.05444 81.6895 7.36116 83.2231 7.9746C85.2679 8.69028 86.2903 9.81491 86.2903 11.4507C86.2903 13.3933 84.7567 15.0291 81.5873 15.0291C80.2582 15.0291 78.9291 14.7224 78.2134 14.3135L78.9291 11.9619Z" fill="white"/>
<path fill-rule="evenodd" clip-rule="evenodd" d="M74.0214 9.81488C74.0214 9.71264 74.0214 9.50816 74.0214 9.30368C73.8169 8.588 73.3057 7.97457 72.4878 7.97457C71.2609 7.97457 70.6475 8.99696 70.6475 10.3261C70.6475 11.7574 71.3632 12.6776 72.4878 12.6776C73.3057 12.6776 73.8169 12.1664 74.0214 11.4507C74.1236 11.2462 74.1236 11.0418 74.1236 10.8373V9.81488H74.0214ZM76.6796 2.45361V12.1664C76.6796 13.0866 76.6796 14.109 76.7819 14.7224H74.4304L74.3281 13.4955C73.8169 14.4157 72.7945 14.9269 71.6699 14.9269C69.6251 14.9269 67.9893 13.1888 67.9893 10.6328C67.9893 7.77008 69.7273 6.13425 71.7721 6.13425C72.7945 6.13425 73.6124 6.54321 74.0214 7.05441V2.45361H76.6796Z" fill="white"/>
<path fill-rule="evenodd" clip-rule="evenodd" d="M64.82 9.50868C64.82 8.89524 64.5132 7.77061 63.2864 7.77061C62.1617 7.77061 61.7528 8.793 61.6505 9.50868H64.82ZM61.7528 11.349C61.855 12.4736 62.8774 12.9848 64.2065 12.9848C65.1267 12.9848 65.8424 12.8826 66.558 12.6781L66.8648 14.4162C65.9446 14.7229 64.9222 14.9274 63.7976 14.9274C60.9349 14.9274 59.1968 13.2916 59.1968 10.6333C59.1968 8.48628 60.5259 6.13477 63.4909 6.13477C66.2513 6.13477 67.2737 8.2818 67.2737 10.3266C67.2737 10.7356 67.1715 11.1445 67.1715 11.349H61.7528Z" fill="white"/>
<path fill-rule="evenodd" clip-rule="evenodd" d="M56.9477 3.88477V6.33852H58.8903V8.28108H56.9477V11.3483C56.9477 12.3707 57.1522 12.7796 57.9701 12.7796C58.2768 12.7796 58.5836 12.7796 58.788 12.6774V14.6199C58.4813 14.7222 57.7656 14.8244 57.05 14.8244C56.232 14.8244 55.5164 14.5177 55.1074 14.1087C54.5962 13.5976 54.3917 12.7796 54.3917 11.655V8.17884H53.2671V6.23628H54.3917V4.39597L56.9477 3.88477Z" fill="white"/>
<path fill-rule="evenodd" clip-rule="evenodd" d="M46.6216 12.3706C47.1327 12.6773 48.1551 12.984 48.8708 12.984C49.6887 12.984 49.9955 12.6773 49.9955 12.2684C49.9955 11.8594 49.6887 11.6549 48.7686 11.3482C47.0305 10.7348 46.3148 9.81461 46.3148 8.79221C46.3148 7.25862 47.644 6.03174 49.791 6.03174C50.8134 6.03174 51.6313 6.23622 52.2447 6.54294L51.7335 8.38325C51.3246 8.17877 50.6089 7.87205 49.8932 7.87205C49.2798 7.87205 48.8708 8.17877 48.8708 8.58773C48.8708 8.99669 49.1775 9.20117 50.1999 9.50789C51.8358 10.0191 52.5515 10.837 52.5515 12.0639C52.5515 13.5975 51.3246 14.8244 48.8708 14.8244C47.7462 14.8244 46.7238 14.6199 46.1104 14.2109L46.6216 12.3706Z" fill="white"/>
<path fill-rule="evenodd" clip-rule="evenodd" d="M45.1902 11.9616C45.1902 13.0863 45.1902 14.0064 45.2925 14.6199H42.941L42.8387 13.393H42.7365C42.4298 13.9042 41.6118 14.7221 40.0782 14.7221C38.3402 14.7221 37.1133 13.6997 37.1133 11.0415V6.13398H39.7715V10.6325C39.7715 11.8594 40.1805 12.5751 41.1006 12.5751C41.8163 12.5751 42.2253 12.0639 42.4298 11.6549C42.532 11.4504 42.532 11.246 42.532 11.0415V6.03174H45.1902V11.9616Z" fill="white"/>
<path fill-rule="evenodd" clip-rule="evenodd" d="M30.7746 9.09972C30.7746 7.87284 30.7746 7.05492 30.6724 6.33925H32.9216L33.0239 7.87284H33.1261C33.5351 6.64597 34.5575 6.13477 35.4776 6.13477C35.6821 6.13477 35.8866 6.13477 35.9888 6.13477V8.58852C35.7844 8.58852 35.5799 8.48628 35.2732 8.48628C34.2508 8.48628 33.6373 8.99748 33.4328 9.8154C33.4328 10.0199 33.3306 10.2244 33.3306 10.4288V14.7229H30.6724V9.09972H30.7746Z" fill="white"/>
<path fill-rule="evenodd" clip-rule="evenodd" d="M24.9463 5.31617H21.7769V3.06689H30.8762V5.31617H27.6045V14.7222H24.9463V5.31617Z" fill="white"/>
<path fill-rule="evenodd" clip-rule="evenodd" d="M13.1889 17.483H0V4.60079C0 2.04479 2.14704 0 4.70303 0H17.892V12.8822C17.9942 15.4382 15.8472 17.483 13.1889 17.483Z" fill="white"/>
<path fill-rule="evenodd" clip-rule="evenodd" d="M14.3137 3.57814C14.2115 3.4759 13.9048 3.4759 13.8025 3.57814L7.15693 10.1215C7.05469 10.2237 6.74797 10.2237 6.64573 10.1215L4.19198 7.76998C4.08974 7.66774 3.78302 7.66774 3.68078 7.76998L2.04494 9.30358C1.9427 9.40581 1.9427 9.71253 2.04494 9.81477L6.64573 14.3133C6.74797 14.4156 7.05469 14.4156 7.15693 14.3133L15.9496 5.62294C16.0518 5.5207 16.0518 5.21398 15.9496 5.11174L14.3137 3.57814Z" fill="black"/>
<path opacity="0.6" d="M3.88563 30.4679C3.16995 30.4679 2.65875 30.6724 2.24979 31.1836C1.84084 31.6948 1.63636 32.3082 1.63636 33.2284C1.63636 34.1485 1.84084 34.762 2.24979 35.2732C2.65875 35.6821 3.16995 35.9889 3.88563 35.9889C4.19235 35.9889 4.49907 35.9888 4.80579 35.8866C5.11251 35.7844 5.41923 35.7844 5.72595 35.6821V36.7045C5.11251 36.909 4.49907 37.0112 3.78339 37.0112C2.76099 37.0112 1.94308 36.7045 1.32964 36.0911C0.716198 35.4776 0.511719 34.5575 0.511719 33.3306C0.511719 32.6149 0.613958 31.8993 0.920678 31.3881C1.2274 30.7746 1.63636 30.3657 2.14755 30.0589C2.65875 29.7522 3.27219 29.65 3.98787 29.65C4.70355 29.65 5.41923 29.8545 6.03267 30.1612L5.62371 31.1836C5.41923 31.0813 5.11251 30.9791 4.80579 30.8769C4.39683 30.4679 4.19235 30.4679 3.88563 30.4679ZM12.576 36.8068H8.48642V29.5477H12.576V30.5701H9.61106V32.5127H12.3715V33.5351H9.61106V35.7844H12.576V36.8068ZM16.4611 32.9217H17.279C17.7902 32.9217 18.1992 32.8194 18.5059 32.6149C18.7104 32.4105 18.9149 32.1037 18.9149 31.6948C18.9149 31.2858 18.8126 30.9791 18.5059 30.7746C18.1992 30.5701 17.7902 30.5701 17.279 30.5701H16.4611V32.9217ZM16.4611 33.9441V36.909H15.2343V29.5477H17.279C18.1992 29.5477 18.9149 29.7522 19.3238 30.0589C19.7328 30.3657 20.0395 30.9791 20.0395 31.6948C20.0395 32.6149 19.5283 33.2284 18.6082 33.6373L20.653 36.909H19.3238L17.5858 33.9441H16.4611ZM25.5605 36.8068H24.3336V30.5701H22.1866V29.5477H27.7075V30.5701H25.5605V36.8068ZM30.059 36.8068V29.5477H31.2859V36.8068H30.059ZM35.4777 36.8068H34.2509V29.5477H38.3405V30.5701H35.3755V32.8194H38.136V33.8418H35.3755V36.8068H35.4777ZM40.9987 36.8068V29.5477H42.2256V36.8068H40.9987ZM49.3824 36.8068H45.2928V29.5477H49.3824V30.5701H46.4174V32.5127H49.1779V33.5351H46.4174V35.7844H49.3824V36.8068ZM58.175 33.1261C58.175 34.353 57.8683 35.2732 57.1526 35.8866C56.4369 36.5 55.5167 36.8068 54.2899 36.8068H52.2451V29.5477H54.4943C55.619 29.5477 56.5391 29.8545 57.2548 30.4679C57.766 31.0813 58.175 32.0015 58.175 33.1261ZM56.8459 33.1261C56.8459 31.3881 56.0279 30.4679 54.3921 30.4679H53.3697V35.7844H54.1876C56.0279 35.8866 56.8459 34.9664 56.8459 33.1261ZM68.9102 34.8642C68.9102 35.4776 68.7057 35.9888 68.1945 36.3978C67.6833 36.8068 67.0698 36.909 66.2519 36.909C65.434 36.909 64.7183 36.8068 64.2071 36.5V35.3754C64.5138 35.5799 64.9228 35.6821 65.2295 35.7844C65.6385 35.8866 65.9452 35.8866 66.2519 35.8866C66.7631 35.8866 67.0698 35.7844 67.2743 35.5799C67.4788 35.3754 67.581 35.1709 67.581 34.8642C67.581 34.5575 67.4788 34.353 67.2743 34.1485C67.0698 33.9441 66.6609 33.7396 66.0475 33.4329C65.3318 33.1261 64.9228 32.8194 64.6161 32.5127C64.3094 32.206 64.2071 31.797 64.2071 31.2858C64.2071 30.6724 64.4116 30.1612 64.8206 29.8545C65.2295 29.5477 65.843 29.3433 66.5587 29.3433C67.2743 29.3433 67.99 29.4455 68.6034 29.7522L68.1945 30.7746C67.581 30.4679 66.9676 30.3657 66.4564 30.3657C66.0474 30.3657 65.7407 30.4679 65.5362 30.5701C65.3318 30.7746 65.2295 30.9791 65.2295 31.2858C65.2295 31.4903 65.2295 31.5925 65.3318 31.797C65.434 31.8993 65.5362 32.1037 65.7407 32.206C65.9452 32.3082 66.2519 32.5127 66.7631 32.7172C67.2743 32.9217 67.6833 33.1261 67.99 33.3306C68.1945 33.5351 68.399 33.7396 68.5012 33.9441C68.9102 34.2508 68.9102 34.5575 68.9102 34.8642ZM75.658 36.8068H71.5684V29.5477H75.658V30.5701H72.693V32.5127H75.4535V33.5351H72.693V35.7844H75.658V36.8068ZM81.5879 30.4679C80.8722 30.4679 80.361 30.6724 79.9521 31.1836C79.5431 31.6948 79.3386 32.3082 79.3386 33.2284C79.3386 34.1485 79.5431 34.762 79.9521 35.2732C80.361 35.6821 80.8722 35.9889 81.5879 35.9889C81.8946 35.9889 82.2013 35.9888 82.5081 35.8866C82.8148 35.7844 83.1215 35.7844 83.4282 35.6821V36.7045C82.8148 36.909 82.2013 37.0112 81.4857 37.0112C80.4633 37.0112 79.6453 36.7045 79.0319 36.0911C78.4185 35.4776 78.214 34.5575 78.214 33.3306C78.214 32.6149 78.3162 31.8993 78.6229 31.3881C78.9297 30.7746 79.3386 30.3657 79.8498 30.0589C80.361 29.7522 80.9745 29.65 81.6901 29.65C82.4058 29.65 83.1215 29.8545 83.7349 30.1612L83.326 31.1836C83.1215 31.0813 82.8148 30.9791 82.5081 30.8769C82.2013 30.4679 81.8946 30.4679 81.5879 30.4679ZM91.9141 29.5477V34.2508C91.9141 34.762 91.8119 35.2732 91.6074 35.6821C91.4029 36.0911 90.994 36.3978 90.585 36.6023C90.1761 36.8068 89.6649 36.909 89.0514 36.909C88.1313 36.909 87.4156 36.7045 86.9044 36.1933C86.3932 35.6821 86.1887 35.0687 86.1887 34.2508V29.5477H87.4156V34.1485C87.4156 34.762 87.5178 35.1709 87.8245 35.4777C88.1312 35.7844 88.5402 35.8866 89.1536 35.8866C90.2783 35.8866 90.8917 35.2732 90.8917 34.1485V29.5477H91.9141ZM96.106 32.9217H96.9239C97.4351 32.9217 97.844 32.8194 98.1508 32.6149C98.3552 32.4105 98.5597 32.1037 98.5597 31.6948C98.5597 31.2858 98.4575 30.9791 98.1508 30.7746C97.844 30.5701 97.4351 30.4679 96.9239 30.4679H96.106V32.9217ZM96.106 33.9441V36.909H94.8791V29.5477H96.9239C97.844 29.5477 98.5597 29.7522 98.9687 30.0589C99.3776 30.3657 99.6843 30.9791 99.6843 31.6948C99.6843 32.6149 99.1732 33.2284 98.253 33.6373L100.298 36.909H98.9687L97.2306 33.9441H96.106ZM106.739 36.8068H102.649V29.5477H106.739V30.5701H103.774V32.5127H106.534V33.5351H103.774V35.7844H106.739V36.8068Z" fill="white"/>
</svg>
