<svg width="98" height="24" viewBox="0 0 98 24" fill="none" xmlns="http://www.w3.org/2000/svg">
<path d="M25.5404 8.39906L35.3711 8.39907V10.2172L31.5003 10.2172V20.4667H29.3787V10.2172L25.5242 10.2172L25.5404 8.39906ZM34.95 11.7297H36.7639V13.4192H36.7963C36.8611 13.1778 36.9744 12.9526 37.1364 12.7273C37.2983 12.5021 37.4927 12.2929 37.7356 12.1159C37.9624 11.9228 38.2215 11.778 38.513 11.6654C38.7883 11.5527 39.0799 11.4884 39.3714 11.4884C39.5981 11.4884 39.7601 11.5045 39.841 11.5045C39.922 11.5206 40.0192 11.5366 40.1002 11.5366V13.387C39.9706 13.3548 39.8248 13.3387 39.6791 13.3226C39.5333 13.3066 39.4038 13.2905 39.258 13.2905C38.9341 13.2905 38.6264 13.3548 38.3349 13.4835C38.0433 13.6123 37.8004 13.8053 37.5737 14.0467C37.3631 14.3041 37.185 14.6099 37.0554 14.9799C36.9258 15.35 36.8611 15.7844 36.8611 16.2671V20.4184L34.9176 20.4184L34.95 11.7297ZM47.0966 20.4667V19.2438H47.0643C46.8213 19.6943 46.465 20.0322 45.9953 20.3058C45.5257 20.5793 45.0398 20.708 44.5539 20.708C43.4041 20.708 42.5619 20.4345 42.0436 19.8552C41.5254 19.2921 41.2662 18.4232 41.2662 17.2808V11.7297L43.2097 11.7297V17.0877C43.2097 17.8601 43.3555 18.4071 43.6632 18.7128C43.9547 19.0346 44.3758 19.1955 44.9102 19.1955C45.3151 19.1955 45.6552 19.1312 45.9306 19.0025C46.2059 18.8737 46.4326 18.7128 46.5946 18.5037C46.7727 18.2945 46.8861 18.0371 46.9671 17.7474C47.0481 17.4578 47.0805 17.136 47.0805 16.7981V11.7297H49.0239L49.0239 20.4667H47.0966ZM52.3116 17.667C52.3764 18.2301 52.5869 18.6163 52.9594 18.8577C53.3319 19.0829 53.7854 19.1955 54.3037 19.1955C54.4818 19.1955 54.6924 19.1795 54.9191 19.1473C55.1458 19.1151 55.3726 19.0668 55.5669 18.9864C55.7775 18.9059 55.9394 18.7933 56.069 18.6324C56.1985 18.4715 56.2633 18.2784 56.2471 18.0371C56.2309 17.7957 56.15 17.5865 55.9718 17.4256C55.7937 17.2647 55.5831 17.1521 55.324 17.0395C55.0649 16.9429 54.7571 16.8625 54.417 16.7981C54.0769 16.7338 53.7368 16.6533 53.3805 16.5729C53.0242 16.4924 52.6679 16.3959 52.3278 16.2832C51.9877 16.1706 51.6962 16.0258 51.4209 15.8166C51.1617 15.6235 50.935 15.3822 50.7892 15.0765C50.6273 14.7708 50.5463 14.4168 50.5463 13.9663C50.5463 13.4835 50.6597 13.0974 50.9026 12.7756C51.1293 12.4538 51.437 12.1963 51.7934 12.0033C52.1497 11.8102 52.5545 11.6654 52.9918 11.5849C53.4291 11.5045 53.8502 11.4723 54.2389 11.4723C54.6924 11.4723 55.1296 11.5206 55.5345 11.6171C55.9394 11.7136 56.3281 11.8584 56.652 12.0837C56.9921 12.2929 57.2674 12.5825 57.478 12.9204C57.7047 13.2583 57.8343 13.6766 57.8991 14.1593L55.8746 14.1593C55.7775 13.6927 55.5669 13.387 55.243 13.2261C54.9029 13.0652 54.5304 12.9848 54.0931 12.9848C53.9636 12.9848 53.7854 13.0008 53.6073 13.0169C53.4129 13.0491 53.251 13.0813 53.0728 13.1457C52.9108 13.21 52.7651 13.3066 52.6517 13.4192C52.5383 13.5318 52.4736 13.6927 52.4736 13.8858C52.4736 14.1272 52.5545 14.3041 52.7165 14.449C52.8785 14.5938 53.089 14.7064 53.3643 14.819C53.6234 14.9156 53.9312 14.996 54.2713 15.0604C54.6114 15.1247 54.9677 15.2052 55.324 15.2856C55.6803 15.3661 56.0204 15.4626 56.3605 15.5753C56.7006 15.6879 57.0083 15.8327 57.2674 16.0419C57.5266 16.235 57.7533 16.4763 57.9153 16.7659C58.0772 17.0556 58.1582 17.4256 58.1582 17.844C58.1582 18.3589 58.0448 18.7933 57.8019 19.1634C57.559 19.5174 57.2513 19.8231 56.8788 20.0483C56.5063 20.2736 56.069 20.4345 55.6155 20.5471C55.1458 20.6437 54.6924 20.708 54.2389 20.708C53.6882 20.708 53.17 20.6437 52.7003 20.5149C52.2306 20.3862 51.8095 20.1931 51.4694 19.9518C51.1293 19.6943 50.854 19.3886 50.6597 19.0025C50.4653 18.6324 50.3519 18.1819 50.3358 17.6509H52.2954V17.667H52.3116ZM58.7088 11.7297H60.1826V9.09094L62.1261 9.09094V11.7136H63.8752V13.1457H62.1261V17.8118C62.1261 18.021 62.1423 18.1819 62.1585 18.3428C62.1747 18.4876 62.2233 18.6163 62.2719 18.7128C62.3366 18.8094 62.4338 18.8898 62.5472 18.9381C62.6768 18.9864 62.8387 19.0186 63.0654 19.0186C63.195 19.0186 63.3408 19.0186 63.4703 19.0025C63.5999 18.9864 63.7457 18.9703 63.8752 18.9381V20.4345C63.6647 20.4667 63.4541 20.4828 63.2436 20.4988C63.0331 20.531 62.8387 20.531 62.612 20.531C62.0937 20.531 61.6888 20.4828 61.3811 20.3862C61.0734 20.2897 60.8305 20.1449 60.6523 19.9679C60.4742 19.7748 60.3608 19.5495 60.296 19.276C60.2312 19.0025 60.1988 18.6646 60.1826 18.3106V13.1617H58.7088V11.6975V11.7297ZM65.2356 11.7297H67.0658V12.9204H67.0981C67.3735 12.4055 67.746 12.0515 68.2318 11.8263C68.7177 11.601 69.236 11.4884 69.819 11.4884C70.5154 11.4884 71.1146 11.601 71.6329 11.8584C72.1511 12.0998 72.5722 12.4216 72.9123 12.856C73.2524 13.2744 73.5116 13.7732 73.6735 14.3363C73.8355 14.8995 73.9327 15.5109 73.9327 16.1384C73.9327 16.7338 73.8517 17.2969 73.7059 17.844C73.544 18.391 73.3172 18.8898 73.0095 19.3082C72.7018 19.7265 72.3131 20.0644 71.8272 20.3219C71.3414 20.5793 70.7907 20.708 70.1429 20.708C69.8676 20.708 69.576 20.6758 69.3007 20.6276C69.0254 20.5793 68.7501 20.4989 68.4909 20.3862C68.2318 20.2736 67.9889 20.1288 67.7784 19.9518C67.5516 19.7748 67.3735 19.5656 67.2277 19.3404H67.1953V23.7008H65.2518V11.7297H65.2356ZM72.0216 16.1062C72.0216 15.7201 71.973 15.3339 71.8596 14.9638C71.7625 14.5938 71.6005 14.272 71.39 13.9823C71.1794 13.6927 70.9203 13.4675 70.6288 13.2905C70.3211 13.1135 69.9648 13.033 69.5761 13.033C68.7663 13.033 68.1508 13.3066 67.7298 13.8697C67.3249 14.4329 67.1143 15.1891 67.1143 16.1223C67.1143 16.5729 67.1629 16.9751 67.2763 17.3452C67.3896 17.7153 67.5354 18.0371 67.7622 18.3106C67.9727 18.5841 68.2318 18.7933 68.5395 18.9542C68.8473 19.1151 69.1874 19.1955 69.5923 19.1955C70.0457 19.1955 70.402 19.099 70.7097 18.922C71.0175 18.745 71.2604 18.5037 71.4709 18.2301C71.6653 17.9405 71.811 17.6187 71.892 17.2486C71.973 16.8625 72.0216 16.4924 72.0216 16.1062ZM75.4388 8.39907H77.3823V10.2173L75.4388 10.2173V8.39907ZM75.4388 11.7297H77.3823V20.4667H75.4388V11.7297ZM79.1152 8.39907H81.0587V20.4667L79.1152 20.4667V8.39907ZM86.9863 20.708C86.2899 20.708 85.6582 20.5954 85.1076 20.354C84.5569 20.1127 84.1035 19.807 83.7148 19.4047C83.3423 19.0025 83.0507 18.5037 82.8564 17.9405C82.662 17.3774 82.5487 16.7499 82.5487 16.0902C82.5487 15.4305 82.6459 14.819 82.8564 14.2559C83.0507 13.6927 83.3423 13.21 83.7148 12.7917C84.0873 12.3894 84.5569 12.0676 85.1076 11.8424C85.6582 11.6171 86.2899 11.4884 86.9863 11.4884C87.6827 11.4884 88.3143 11.601 88.8649 11.8424C89.4156 12.0676 89.8691 12.3894 90.2578 12.7917C90.6303 13.1939 90.9218 13.6927 91.1161 14.2559C91.3105 14.819 91.4238 15.4305 91.4238 16.0902C91.4238 16.7659 91.3267 17.3774 91.1161 17.9405C90.9056 18.5037 90.6303 18.9864 90.2578 19.4047C89.8853 19.807 89.4156 20.1288 88.8649 20.354C88.3143 20.5793 87.6989 20.708 86.9863 20.708ZM86.9863 19.1795C87.4073 19.1795 87.796 19.0829 88.1038 18.9059C88.4277 18.7289 88.6706 18.4876 88.8811 18.198C89.0917 17.9083 89.2374 17.5704 89.3346 17.2165C89.4318 16.8464 89.4804 16.4763 89.4804 16.0902C89.4804 15.7201 89.4318 15.35 89.3346 14.9799C89.2374 14.6099 89.0917 14.2881 88.8811 13.9984C88.6706 13.7088 88.4115 13.4836 88.1038 13.3066C87.7798 13.1296 87.4073 13.033 86.9863 13.033C86.5652 13.033 86.1765 13.1296 85.8688 13.3066C85.5449 13.4836 85.3019 13.7249 85.0914 13.9984C84.8808 14.2881 84.7351 14.6099 84.6379 14.9799C84.5407 15.35 84.4921 15.7201 84.4921 16.0902C84.4921 16.4763 84.5407 16.8464 84.6379 17.2165C84.7351 17.5865 84.8808 17.9083 85.0914 18.198C85.3019 18.4876 85.5611 18.7289 85.8688 18.9059C86.1927 19.099 86.5652 19.1795 86.9863 19.1795ZM92.0069 11.7297H93.4807V9.09094H95.4241V11.7136H97.1732V13.1457H95.4241V17.8118C95.4241 18.021 95.4403 18.1819 95.4565 18.3428C95.4727 18.4876 95.5213 18.6163 95.5699 18.7128C95.6347 18.8094 95.7319 18.8898 95.8452 18.9381C95.9748 18.9864 96.1367 19.0186 96.3635 19.0186C96.493 19.0186 96.6388 19.0186 96.7684 19.0025C96.8979 18.9864 97.0437 18.9703 97.1732 18.9381V20.4345C96.9627 20.4667 96.7522 20.4828 96.5416 20.4989C96.3311 20.531 96.1367 20.531 95.91 20.531C95.3917 20.531 94.9869 20.4828 94.6791 20.3862C94.3714 20.2897 94.1285 20.1449 93.9503 19.9679C93.7722 19.7748 93.6588 19.5495 93.594 19.276C93.5293 19.0025 93.4969 18.6646 93.4807 18.3106V13.1617H92.0069V11.6975V11.7297Z" fill="white"/>
<path d="M23.273 8.39906L14.3816 8.39906L11.6446 0L8.89135 8.39906L0 8.38296L7.19082 13.5801L4.43758 21.9791L11.6284 16.782L18.8192 21.9791L16.0822 13.5801L23.273 8.39906Z" fill="white"/>
<path d="M16.6976 15.4787L16.0822 13.5801L11.6446 16.782L16.6976 15.4787Z" fill="black"/>
</svg>
