<svg width="196" height="40" viewBox="0 0 196 40" fill="none" xmlns="http://www.w3.org/2000/svg">
<path d="M20.0095 12.3557L22.6295 37.4682H19.8947C18.1267 37.4682 16.5351 36.4412 15.8675 34.864C13.8671 30.1413 11.4129 23.952 9.49671 19.045C6.90887 17.723 4.40785 16.4515 2.96972 15.7332C1.86942 15.1841 0 13.6764 0 11.9078V0.000244141H0.810533C0.810533 0.000244141 2.77743 6.33163 3.59733 8.32831C4.17417 9.73494 6.33336 10.2799 7.88767 10.4929L19.6009 12.3134V12.3189C19.864 12.3421 20.0095 12.3557 20.0095 12.3557ZM44.3494 8.32831C43.7725 9.73494 41.6133 10.2799 40.0592 10.4929L28.3458 12.3134V12.3189C28.0828 12.3421 27.9373 12.3557 27.9373 12.3557L25.3174 37.4682H28.0521C29.82 37.4682 31.4117 36.4412 32.0795 34.864C34.0797 30.1413 36.5341 23.952 38.4501 19.0464C41.038 17.7243 43.5389 16.4529 44.9769 15.7345C46.0774 15.1841 47.9482 13.6778 47.9482 11.9078V0.000244141H47.1377C47.1377 0.000244141 45.1707 6.33163 44.351 8.32831H44.3494Z" fill="white"/>
<path d="M70.792 23.6278C72.4969 23.6278 73.3261 23.0623 73.3261 21.9313V10.3386H76.2288V21.9313C76.2288 24.5704 74.4322 25.937 70.792 25.937H62.6826C59.0427 25.937 57.2458 24.5704 57.2458 21.8842V10.3386H60.1485V21.8842C60.1485 23.0152 60.9781 23.6278 62.6826 23.6278H70.792Z" fill="white"/>
<path d="M78.9963 10.3386H81.6683L90.6988 23.0623L99.73 10.3386H102.218V25.937H99.4537V15.0982L91.8053 25.937H89.4545L81.7606 15.0982V25.937H78.9963V10.3386Z" fill="white"/>
<path d="M105.022 10.3386H107.925V25.937H105.022V10.3386Z" fill="white"/>
<path d="M113.545 14.0615V25.937H110.827V10.3386H113.084L128.244 22.3083V10.3386H130.962V25.937H128.705L113.545 14.0615Z" fill="white"/>
<path d="M155.479 25.937V10.3386H167.551C171.191 10.3386 172.987 11.4696 172.987 13.6845V15.5695C172.987 17.4545 171.743 18.5383 169.21 18.8682L172.803 25.8899H169.717L166.122 18.9153H158.289V25.937H155.479ZM158.382 12.6477V16.7005H167.551C169.256 16.7005 170.085 16.3235 170.085 15.6166V13.7316C170.085 13.0247 169.256 12.6477 167.551 12.6477H158.382Z" fill="white"/>
<path d="M188.983 16.4649C192.623 16.4649 194.42 17.5959 194.42 19.8108V22.5911C194.42 24.806 192.623 25.8899 188.983 25.8899H175.99V23.5808H188.983C190.688 23.5808 191.517 23.2509 191.517 22.544V19.7636C191.517 19.0567 190.688 18.6797 188.983 18.6797H180.874C177.234 18.6797 175.437 17.5487 175.437 15.3339V13.6845C175.437 11.4225 177.234 10.3386 180.874 10.3386H193.452V12.6477H180.874C179.169 12.6477 178.34 13.0247 178.34 13.7316V15.4282C178.34 16.1349 179.169 16.512 180.874 16.512H188.983V16.4649Z" fill="white"/>
<path d="M153.263 10.3386H133.358V12.6477H153.263V10.3386Z" fill="white"/>
<path d="M153.263 16.7031H133.358V19.0122H153.263V16.7031Z" fill="white"/>
<path d="M153.263 23.6304H133.358V25.9395H153.263V23.6304Z" fill="white"/>
<path d="M141.833 39.7857L142.861 36.9333L142.876 37.7785L140.549 31.9375H141.316L143.225 36.8224H142.91L144.671 31.9375H145.409L142.556 39.7857H141.833Z" fill="white"/>
<path d="M138.08 37.5167C137.457 37.5167 136.944 37.3794 136.541 37.1043C136.14 36.8292 135.894 36.4471 135.803 35.9573L136.541 35.8315C136.619 36.1401 136.798 36.3866 137.076 36.571C137.358 36.7521 137.706 36.8425 138.119 36.8425C138.522 36.8425 138.841 36.757 139.073 36.5859C139.306 36.4116 139.423 36.1752 139.423 35.8767C139.423 35.7092 139.385 35.5733 139.31 35.4692C139.237 35.3619 139.089 35.263 138.862 35.1723C138.636 35.0819 138.298 34.9746 137.849 34.8503C137.367 34.7163 136.99 34.582 136.718 34.4481C136.445 34.3137 136.252 34.1596 136.137 33.985C136.022 33.8074 135.965 33.5911 135.965 33.3362C135.965 33.0276 136.05 32.7576 136.22 32.5261C136.391 32.2914 136.628 32.1103 136.929 31.9828C137.231 31.852 137.582 31.7866 137.981 31.7866C138.382 31.7866 138.739 31.8537 139.054 31.9879C139.372 32.1187 139.628 32.3032 139.821 32.5414C140.015 32.7794 140.13 33.0562 140.165 33.3713L139.427 33.5072C139.378 33.1885 139.223 32.9372 138.961 32.7524C138.702 32.5648 138.372 32.4675 137.971 32.4608C137.595 32.4507 137.288 32.5245 137.052 32.6822C136.816 32.8363 136.698 33.0428 136.698 33.3011C136.698 33.4451 136.74 33.5694 136.826 33.6731C136.911 33.7739 137.065 33.8695 137.288 33.9599C137.514 34.0507 137.836 34.1495 138.252 34.2568C138.741 34.3843 139.125 34.5183 139.403 34.6591C139.682 34.8002 139.88 34.9661 139.998 35.1573C140.116 35.3485 140.175 35.585 140.175 35.8666C140.175 36.3798 139.988 36.784 139.614 37.0793C139.244 37.371 138.733 37.5167 138.08 37.5167Z" fill="white"/>
<path d="M132.153 37.5219C131.752 37.5219 131.416 37.4481 131.144 37.3004C130.875 37.1531 130.674 36.9567 130.539 36.7118C130.405 36.4669 130.337 36.2002 130.337 35.9118C130.337 35.6168 130.395 35.3651 130.51 35.1573C130.628 34.9459 130.787 34.7733 130.987 34.6393C131.19 34.505 131.425 34.4025 131.69 34.3323C131.959 34.2653 132.256 34.2064 132.58 34.156C132.909 34.1027 133.228 34.0572 133.54 34.0204C133.855 33.9801 134.13 33.9414 134.366 33.9046L134.11 34.0656C134.12 33.529 134.019 33.1316 133.806 32.8734C133.592 32.6152 133.222 32.4859 132.694 32.4859C132.33 32.4859 132.022 32.5697 131.769 32.7375C131.52 32.9053 131.345 33.17 131.242 33.5323L130.539 33.3209C130.66 32.8347 130.905 32.4574 131.272 32.1891C131.64 31.9208 132.117 31.7866 132.704 31.7866C133.189 31.7866 133.6 31.8806 133.938 32.0683C134.279 32.2529 134.521 32.5212 134.661 32.8734C134.727 33.0308 134.77 33.2071 134.789 33.4015C134.809 33.596 134.819 33.7941 134.819 33.995V37.371H134.174V36.0074L134.361 36.0881C134.181 36.5544 133.901 36.9098 133.52 37.1547C133.14 37.3996 132.684 37.5219 132.153 37.5219ZM132.236 36.8828C132.574 36.8828 132.869 36.8211 133.122 36.6968C133.374 36.5726 133.578 36.4035 133.731 36.1885C133.886 35.9707 133.986 35.7258 134.032 35.4542C134.071 35.2796 134.092 35.0887 134.095 34.8806C134.099 34.6692 134.101 34.5118 134.101 34.4077L134.376 34.5537C134.13 34.5872 133.863 34.6207 133.574 34.6542C133.289 34.6877 133.007 34.7264 132.728 34.77C132.452 34.8136 132.204 34.8656 131.98 34.9258C131.83 34.9697 131.683 35.0315 131.543 35.1121C131.402 35.1892 131.285 35.2933 131.193 35.424C131.105 35.5547 131.061 35.7173 131.061 35.9118C131.061 36.0695 131.099 36.2224 131.174 36.3697C131.252 36.5173 131.377 36.6399 131.547 36.7372C131.721 36.8344 131.951 36.8828 132.236 36.8828Z" fill="white"/>
<path d="M125.022 37.3694V30.125H129.449V30.8343H125.745V33.3398H128.859V34.049H125.745V36.6601H129.449V37.3694H125.022Z" fill="white"/>
<path d="M119.34 39.9365C119.067 39.9365 118.798 39.8949 118.533 39.811C118.27 39.7303 118.028 39.6012 117.805 39.4237C117.582 39.249 117.395 39.0211 117.244 38.7394L117.898 38.3671C118.046 38.6689 118.252 38.8851 118.518 39.0159C118.787 39.1502 119.061 39.2172 119.34 39.2172C119.723 39.2172 120.033 39.1433 120.269 38.996C120.509 38.8516 120.682 38.637 120.79 38.3518C120.898 38.0669 120.952 37.7115 120.948 37.2854V35.8363H121.032V31.9375H121.676V37.2955C121.676 37.4497 121.671 37.5973 121.661 37.7381C121.655 37.8825 121.64 38.0233 121.617 38.1609C121.555 38.5667 121.425 38.9004 121.228 39.1619C121.035 39.4237 120.779 39.6181 120.461 39.7456C120.146 39.8731 119.772 39.9365 119.34 39.9365ZM119.29 37.5219C118.796 37.5219 118.373 37.396 118.021 37.1446C117.67 36.8897 117.401 36.5459 117.215 36.1131C117.028 35.6806 116.934 35.1924 116.934 34.6494C116.934 34.1092 117.026 33.623 117.209 33.1902C117.396 32.7576 117.664 32.4155 118.012 32.1639C118.359 31.9124 118.776 31.7866 119.261 31.7866C119.76 31.7866 120.179 31.9108 120.52 32.1589C120.861 32.4071 121.119 32.7476 121.292 33.1801C121.469 33.6094 121.558 34.0991 121.558 34.6494C121.558 35.1892 121.471 35.6773 121.297 36.1131C121.123 36.5459 120.867 36.8897 120.53 37.1446C120.192 37.396 119.779 37.5219 119.29 37.5219ZM119.364 36.8324C119.741 36.8324 120.052 36.7388 120.298 36.5508C120.544 36.3632 120.728 36.105 120.849 35.7762C120.971 35.4441 121.032 35.0685 121.032 34.6494C121.032 34.2233 120.971 33.8477 120.849 33.5222C120.728 33.1937 120.544 32.9372 120.298 32.7524C120.056 32.5681 119.75 32.4759 119.379 32.4759C118.998 32.4759 118.684 32.5713 118.435 32.7625C118.185 32.9537 118 33.2139 117.878 33.5424C117.76 33.8711 117.701 34.2399 117.701 34.6494C117.701 35.0617 117.762 35.4341 117.883 35.7661C118.008 36.0949 118.193 36.3547 118.439 36.5459C118.685 36.7372 118.994 36.8324 119.364 36.8324Z" fill="white"/>
<path d="M115.225 37.3714V34.5994C115.225 34.2976 115.197 34.0208 115.141 33.7694C115.086 33.5145 114.996 33.293 114.871 33.1054C114.75 32.9141 114.59 32.7665 114.394 32.6624C114.2 32.5584 113.964 32.5066 113.685 32.5066C113.429 32.5066 113.203 32.5519 113.006 32.6423C112.813 32.733 112.649 32.8637 112.514 33.0348C112.384 33.2026 112.284 33.4072 112.215 33.6485C112.146 33.8901 112.111 34.1652 112.111 34.4738L111.6 34.3581C111.6 33.8013 111.695 33.3333 111.885 32.9545C112.075 32.5753 112.337 32.2886 112.672 32.0941C113.006 31.8995 113.39 31.8022 113.823 31.8022C114.141 31.8022 114.419 31.8526 114.654 31.9532C114.894 32.0538 115.096 32.1896 115.259 32.3607C115.426 32.5317 115.561 32.7278 115.662 32.9493C115.765 33.1672 115.838 33.4003 115.884 33.6485C115.93 33.8933 115.953 34.1382 115.953 34.3831V37.3714H115.225ZM111.383 37.3714V31.9381H112.038V33.2764H112.111V37.3714H111.383Z" fill="white"/>
<path d="M109.189 30.9082V30.0781H109.912V30.9082H109.189ZM109.189 37.373V31.9396H109.912V37.373H109.189Z" fill="white"/>
<path d="M107.087 37.3714V34.5994C107.087 34.2976 107.059 34.0208 107.003 33.7694C106.947 33.5145 106.857 33.293 106.733 33.1054C106.611 32.9141 106.453 32.7665 106.256 32.6624C106.062 32.5584 105.826 32.5066 105.548 32.5066C105.292 32.5066 105.066 32.5519 104.869 32.6423C104.675 32.733 104.511 32.8637 104.377 33.0348C104.245 33.2026 104.145 33.4072 104.076 33.6485C104.007 33.8901 103.974 34.1652 103.974 34.4738L103.462 34.3581C103.462 33.8013 103.557 33.3333 103.747 32.9545C103.937 32.5753 104.2 32.2886 104.534 32.0941C104.869 31.8995 105.252 31.8022 105.685 31.8022C106.003 31.8022 106.28 31.8526 106.516 31.9532C106.755 32.0538 106.957 32.1896 107.122 32.3607C107.289 32.5317 107.423 32.7278 107.525 32.9493C107.627 33.1672 107.7 33.4003 107.746 33.6485C107.792 33.8933 107.815 34.1382 107.815 34.3831V37.3714H107.087ZM103.246 37.3714V31.9381H103.899V33.2764H103.974V37.3714H103.246Z" fill="white"/>
<path d="M101.052 30.9082V30.0781H101.776V30.9082H101.052ZM101.052 37.373V31.9396H101.776V37.373H101.052Z" fill="white"/>
<path d="M92.6819 37.3694V30.125H93.3464L96.1305 36.2175L98.8995 30.125H99.5738V37.3645H98.885V31.7751L96.3613 37.3694H95.8944L93.3758 31.7751V37.3694H92.6819Z" fill="white"/>
<path d="M87.0015 39.9365C86.73 39.9365 86.4603 39.8949 86.1948 39.811C85.933 39.7303 85.6899 39.6012 85.4667 39.4237C85.2442 39.249 85.0574 39.0211 84.9059 38.7394L85.5606 38.3671C85.7083 38.6689 85.9147 38.8851 86.1806 39.0159C86.449 39.1502 86.723 39.2172 87.0015 39.2172C87.3853 39.2172 87.6955 39.1433 87.9316 38.996C88.1706 38.8516 88.3448 38.637 88.4529 38.3518C88.5613 38.0669 88.6135 37.7115 88.6103 37.2854V35.8363H88.6935V31.9375H89.3384V37.2955C89.3384 37.4497 89.333 37.5973 89.3232 37.7381C89.3172 37.8825 89.302 38.0233 89.2793 38.1609C89.2173 38.5667 89.0871 38.9004 88.8904 39.1619C88.6973 39.4237 88.4415 39.6181 88.1232 39.7456C87.8083 39.8731 87.4343 39.9365 87.0015 39.9365ZM86.9522 37.5219C86.4575 37.5219 86.0345 37.396 85.6833 37.1446C85.333 36.8897 85.0634 36.5459 84.8765 36.1131C84.6897 35.6806 84.5964 35.1924 84.5964 34.6494C84.5964 34.1092 84.6881 33.623 84.8721 33.1902C85.0589 32.7576 85.3261 32.4155 85.6735 32.1639C86.0215 31.9124 86.4376 31.7866 86.9228 31.7866C87.4214 31.7866 87.8415 31.9108 88.182 32.1589C88.5234 32.4071 88.7807 32.7476 88.9546 33.1801C89.1319 33.6094 89.2205 34.0991 89.2205 34.6494C89.2205 35.1892 89.1332 35.6773 88.9593 36.1131C88.7861 36.5459 88.53 36.8897 88.1918 37.1446C87.8545 37.396 87.4413 37.5219 86.9522 37.5219ZM87.0265 36.8324C87.4033 36.8324 87.7151 36.7388 87.961 36.5508C88.2069 36.3632 88.3909 36.105 88.512 35.7762C88.6331 35.4441 88.6935 35.0685 88.6935 34.6494C88.6935 34.2233 88.6331 33.8477 88.512 33.5222C88.3909 33.1937 88.2069 32.9372 87.961 32.7524C87.7182 32.5681 87.4116 32.4759 87.0408 32.4759C86.6611 32.4759 86.3462 32.5713 86.0965 32.7625C85.8474 32.9537 85.6621 33.2139 85.541 33.5424C85.4228 33.8711 85.364 34.2399 85.364 34.6494C85.364 35.0617 85.4244 35.4341 85.5455 35.7661C85.6703 36.0949 85.8559 36.3547 86.1018 36.5459C86.3478 36.7372 86.6557 36.8324 87.0265 36.8324Z" fill="white"/>
<path d="M82.8852 37.3714V34.5994C82.8852 34.2976 82.8571 34.0208 82.8011 33.7694C82.7452 33.5145 82.6551 33.293 82.5308 33.1054C82.4091 32.9141 82.2501 32.7665 82.0535 32.6624C81.8597 32.5584 81.6235 32.5066 81.345 32.5066C81.0893 32.5066 80.8629 32.5519 80.6663 32.6423C80.4725 32.733 80.3091 32.8637 80.1744 33.0348C80.0435 33.2026 79.9436 33.4072 79.8747 33.6485C79.8058 33.8901 79.771 34.1652 79.771 34.4738L79.2595 34.3581C79.2595 33.8013 79.355 33.3333 79.5447 32.9545C79.7347 32.5753 79.9974 32.2886 80.3318 32.0941C80.6663 31.8995 81.0501 31.8022 81.4828 31.8022C81.8006 31.8022 82.0784 31.8526 82.3146 31.9532C82.5536 32.0538 82.755 32.1896 82.919 32.3607C83.0863 32.5317 83.2212 32.7278 83.3224 32.9493C83.4239 33.1672 83.4982 33.4003 83.5443 33.6485C83.5895 33.8933 83.6132 34.1382 83.6132 34.3831V37.3714H82.8852ZM79.043 37.3714V31.9381H79.6977V33.2764H79.771V37.3714H79.043Z" fill="white"/>
<path d="M76.8523 30.9082V30.0781H77.5753V30.9082H76.8523ZM76.8523 37.373V31.9396H77.5753V37.373H76.8523Z" fill="white"/>
<path d="M71.8679 37.3694L71.8727 30.125H72.6007V34.5521L74.9717 31.9361H75.9356L73.4467 34.6529L76.2602 37.3694H75.2078L72.6007 34.7534V37.3694H71.8679Z" fill="white"/>
<path d="M67.928 37.5219C67.5278 37.5219 67.1917 37.4481 66.9196 37.3004C66.6505 37.1531 66.4488 36.9567 66.3145 36.7118C66.1801 36.4669 66.1128 36.2002 66.1128 35.9118C66.1128 35.6168 66.1703 35.3651 66.2851 35.1573C66.403 34.9459 66.562 34.7733 66.7621 34.6393C66.9654 34.505 67.2 34.4025 67.4655 34.3323C67.7345 34.2653 68.0314 34.2064 68.356 34.156C68.6839 34.1027 69.0035 34.0572 69.3152 34.0204C69.63 33.9801 69.9054 33.9414 70.1415 33.9046L69.8858 34.0656C69.8956 33.529 69.7938 33.1316 69.5807 32.8734C69.3677 32.6152 68.9968 32.4859 68.4692 32.4859C68.105 32.4859 67.7968 32.5697 67.5442 32.7375C67.2951 32.9053 67.1197 33.17 67.0179 33.5323L66.3145 33.3209C66.4359 32.8347 66.6802 32.4574 67.0476 32.1891C67.4146 31.9208 67.892 31.7866 68.479 31.7866C68.9643 31.7866 69.3759 31.8806 69.7135 32.0683C70.0546 32.2529 70.2955 32.5212 70.4365 32.8734C70.5022 33.0308 70.5449 33.2071 70.5645 33.4015C70.5841 33.596 70.5939 33.7941 70.5939 33.995V37.371H69.9497V36.0074L70.1365 36.0881C69.9563 36.5544 69.6759 36.9098 69.2956 37.1547C68.915 37.3996 68.4591 37.5219 67.928 37.5219ZM68.0115 36.8828C68.3494 36.8828 68.6444 36.8211 68.8969 36.6968C69.1495 36.5726 69.3528 36.4035 69.5071 36.1885C69.661 35.9707 69.7612 35.7258 69.8071 35.4542C69.8463 35.2796 69.8678 35.0887 69.8709 34.8806C69.8741 34.6692 69.876 34.5118 69.876 34.4077L70.1513 34.5537C69.9054 34.5872 69.6383 34.6207 69.3496 34.6542C69.0642 34.6877 68.7822 34.7264 68.5034 34.77C68.228 34.8136 67.9789 34.8656 67.7557 34.9258C67.6049 34.9697 67.4589 35.0315 67.3182 35.1121C67.1769 35.1892 67.0606 35.2933 66.9689 35.424C66.8804 35.5547 66.8361 35.7173 66.8361 35.9118C66.8361 36.0695 66.8737 36.2224 66.9493 36.3697C67.0277 36.5173 67.1525 36.6399 67.3229 36.7372C67.4968 36.8344 67.7263 36.8828 68.0115 36.8828Z" fill="white"/>
<path d="M58.1357 37.3694V30.125H58.7999L61.5838 36.2175L64.3534 30.125H65.027V37.3645H64.3385V31.7751L61.8152 37.3694H61.3479L58.8293 31.7751V37.3694H58.1357Z" fill="white"/>
</svg>
