<svg width="167" height="70" viewBox="0 0 167 70" fill="none" xmlns="http://www.w3.org/2000/svg">
<path fill-rule="evenodd" clip-rule="evenodd" d="M57.0762 42.3354V27.8281H60.966L65.9216 38.6687L70.7707 27.8281H74.554V42.3354H71.3035V33.8861L67.6268 42.3354H64.1632L60.4332 33.9392V42.3354H57.0762Z" fill="#141414"/>
<path fill-rule="evenodd" clip-rule="evenodd" d="M87.502 36.7025L84.7844 30.5383L82.1734 36.7025H87.502ZM79.7755 42.3354H75.9922L82.4931 27.8281H87.129L93.6831 42.3354H89.9531L88.6742 39.4658H81.0011L79.7755 42.3354Z" fill="#141414"/>
<path fill-rule="evenodd" clip-rule="evenodd" d="M95.2285 42.3354V27.8281H109.189V30.6977H98.5855V33.5673H107.697V36.4368H98.5855V39.4127H109.243V42.3354H95.2285Z" fill="#141414"/>
<path fill-rule="evenodd" clip-rule="evenodd" d="M115.373 34.4706H122.727V30.6977H115.373V34.4706ZM111.963 42.3354V27.8281H123.686C125.231 27.8281 126.137 28.7315 126.137 30.2726V35.1615C126.137 36.2774 125.125 37.2871 123.206 37.2871C123.1 37.2871 122.993 37.2871 122.887 37.2871L126.297 42.3354H122.514L119.263 37.3933H115.373V42.3354H111.963Z" fill="#141414"/>
<path fill-rule="evenodd" clip-rule="evenodd" d="M132.317 42.3338H131.144C129.652 42.3338 128.906 41.4836 128.906 40.2082V38.2952H132.317V39.4111H139.563V36.4353C139.563 36.4353 132.583 36.4353 131.251 36.4353C129.919 36.4353 128.96 35.5319 128.96 34.3097V30.0053C128.96 28.6768 130.025 27.7734 131.251 27.7734C132.53 27.7734 140.736 27.7734 140.736 27.7734C142.015 27.7734 142.92 28.73 142.92 30.1116C142.92 31.4932 142.92 31.8652 142.92 31.8652H139.563V30.6961H132.317V33.5657H140.576C141.801 33.5657 142.92 34.3628 142.92 35.9039V40.0488C142.92 41.4836 142.121 42.3338 140.629 42.3338C139.19 42.3338 132.317 42.3338 132.317 42.3338Z" fill="#141414"/>
<path fill-rule="evenodd" clip-rule="evenodd" d="M146.223 42.3354V27.8281H149.686V33.6204L156.294 27.8281H161.036L153.15 34.5769L161.303 42.3354H156.454L149.686 35.746V42.3354H146.223Z" fill="#141414"/>
<path d="M15.086 18.4902H39.0114C41.0896 18.4902 42.7947 20.1907 42.7947 22.2632V47.7173C42.7947 49.7898 41.0896 51.4902 39.0114 51.4902H15.086C13.0079 51.4902 11.3027 49.7898 11.3027 47.7173V22.2632C11.3027 21.2535 11.6757 20.297 12.4217 19.6062C13.1677 18.9154 14.0736 18.4902 15.086 18.4902Z" fill="#42B0D5"/>
<path d="M32.0836 34.0588L38.3181 26.3535L29.3128 30.6047L27.0748 20.9863L24.8367 30.6047L15.8314 26.3535L22.0659 34.0588L13.0605 38.3631H23.025L20.8403 47.9815L27.0748 40.2762L33.3092 47.9815L31.0712 38.3631H41.089L32.0836 34.0588Z" fill="white"/>
</svg>
