<svg width="146" height="70" viewBox="0 0 146 70" fill="none" xmlns="http://www.w3.org/2000/svg">
<g clip-path="url(#clip0_1_21519)">
<path d="M99.1701 35.8041C95.4502 35.8041 94.123 33.5922 94.123 31.5205C94.123 28.8418 96.1111 27.2422 99.4426 27.2422C102.949 27.2422 104.897 28.7312 104.897 31.4314C104.897 34.2612 103.114 35.6908 99.448 35.7988L99.1701 35.8041ZM99.4399 28.9389C97.5219 28.9389 97.12 30.2877 97.12 31.4395C97.12 33.1363 97.8969 33.9267 99.5478 33.9267C101.199 33.9267 101.976 33.1012 101.976 31.4072C101.976 29.5378 101.352 28.9389 99.4156 28.9389H99.4399Z" fill="#154B83"/>
<path d="M88.3698 35.4697V35.4535C84.569 35.2485 83.7625 33.2011 83.7598 31.5124C83.7598 30.3713 84.1024 29.4542 84.7875 28.7852C85.6184 27.9759 86.9294 27.5659 88.6882 27.5659H89.0119H92.9098V29.1844H89.0469C88.2889 29.1844 87.7278 29.3625 87.3799 29.7239C87.0319 30.0854 86.8592 30.6438 86.8781 31.4099V31.4827C86.8781 32.1598 86.8781 33.5706 89.1494 33.7352L92.9071 33.7837V35.4697H88.3698Z" fill="#154B83"/>
<path d="M74.2951 35.363V33.7444H78.4925C78.7623 33.7444 79.2532 33.704 79.5149 33.4369C79.5745 33.3724 79.62 33.2961 79.6483 33.2129C79.6767 33.1298 79.6873 33.0416 79.6794 32.9541C79.6632 32.4146 79.3287 32.161 78.6274 32.161H76.8173C75.7761 32.1367 75.0478 31.9047 74.5919 31.4515C74.2061 31.0658 74.0254 30.5479 74.0254 29.8141C74.0254 28.2118 74.983 27.4646 77.0358 27.4646H82.2043V29.0831H77.6832C77.4366 29.0536 77.1876 29.114 76.9819 29.2531C76.8494 29.4107 76.7845 29.6143 76.8011 29.8195C76.7903 29.9112 76.7982 30.004 76.8241 30.0926C76.8501 30.1811 76.8936 30.2635 76.9522 30.3348C77.141 30.5263 77.5214 30.5425 77.9287 30.5425H79.2451C80.7692 30.5425 81.5947 31.0388 82.0209 31.4542C82.227 31.6503 82.391 31.8863 82.5028 32.1479C82.6146 32.4095 82.6718 32.6912 82.671 32.9757C82.6885 33.2812 82.6439 33.5871 82.5401 33.875C82.4362 34.1629 82.2752 34.4268 82.0667 34.6508C81.6001 35.1148 80.8609 35.3522 79.8736 35.3522H78.7946H74.2951V35.363Z" fill="#154B83"/>
<path d="M66.9611 35.8295C63.2412 35.8295 61.9141 33.6176 61.9141 31.5459C61.9141 28.8672 63.9021 27.2676 67.2363 27.2676C70.7431 27.2676 72.6934 28.7566 72.6934 31.4568C72.6934 34.2865 70.9103 35.7162 67.2444 35.8241H66.9746L66.9611 35.8295ZM67.2309 28.9643C65.3129 28.9643 64.911 30.3131 64.911 31.4649C64.911 33.1617 65.6852 33.9521 67.3388 33.9521C68.9924 33.9521 69.7666 33.1266 69.7666 31.4326C69.7666 29.5632 69.1434 28.9643 67.2066 28.9643H67.2309Z" fill="#154B83"/>
<path d="M56.2527 35.4702V35.454C52.4518 35.249 51.6453 33.2015 51.6426 31.5129C51.6426 30.3718 51.9852 29.4547 52.6703 28.7857C53.5012 27.9764 54.8095 27.5664 56.5656 27.5664H56.8947H60.7926V29.1849H56.9136C56.169 29.1849 55.6133 29.363 55.2654 29.7244C54.7798 30.2127 54.7906 30.9626 54.796 31.3645V31.6046C54.7609 32.2412 54.6881 33.5576 57.0376 33.7249L60.7953 33.7734V35.4594L56.2527 35.4702Z" fill="#154B83"/>
<path d="M70.1465 42.1104V37.3789H68.7276V42.1104H70.1465Z" fill="#154B83"/>
<path d="M87.9473 42.1885V37.457H86.5284V42.1885H87.9473Z" fill="#154B83"/>
<path d="M79.4785 42.1533V37.4219H82.5078C84.21 37.5298 84.5661 38.2851 84.5661 38.9001C84.5661 39.766 83.7055 40.373 82.4701 40.373H80.8974V42.1533H79.4785ZM82.23 39.6015C82.7695 39.6015 83.0959 39.3452 83.0959 38.9001C83.0959 38.5009 82.7236 38.1988 82.23 38.1988H80.8947V39.6015H82.23Z" fill="#154B83"/>
<path d="M72.5938 42.1846V37.4531H75.6204C77.3225 37.561 77.6786 38.3163 77.6786 38.9314C77.6786 39.7973 76.8154 40.4042 75.5826 40.4042H74.01V42.1792L72.5938 42.1846ZM75.3452 39.6327C75.8847 39.6327 76.2084 39.3765 76.2084 38.9314C76.2084 38.5321 75.8362 38.23 75.3452 38.23H74.0127V39.6327H75.3452Z" fill="#154B83"/>
<path d="M99.7732 42.113C99.0643 42.1418 98.3718 41.8942 97.8418 41.4224C97.618 41.1966 97.4435 40.9269 97.3292 40.6302C97.215 40.3335 97.1636 40.0163 97.1782 39.6987C97.1782 38.1422 98.1439 37.2871 99.8946 37.2871H102.608V38.4686H99.4441C98.9721 38.5361 98.6079 39.0648 98.6079 39.6987C98.6079 40.3974 99.0341 40.9665 99.5574 40.9665L101.278 40.9315V39.7823H102.606V42.1103H99.7732V42.113Z" fill="#154B83"/>
<path d="M91.7255 42.1104H90.3066V37.3789H91.6446L93.8863 40.1843V37.4544H95.3052V42.1859H94.0023L91.7255 39.3697V42.1104Z" fill="#154B83"/>
<path d="M62.8354 40.2518L62.8435 42.1104H61.4219V37.3789H62.8435L62.8273 39.1943L64.9475 39.2348V37.3789H66.3664V42.1104H64.9475V40.2518H62.8354Z" fill="#154B83"/>
<path d="M54.2654 42.1852V41.1736H56.9845C57.7129 41.1466 57.7129 40.8634 57.7129 40.7096C57.7129 40.4399 57.4431 40.2672 56.9791 40.2483H55.8057C55.1691 40.2348 54.7267 40.0946 54.4569 39.8194C54.3335 39.6849 54.239 39.5264 54.1796 39.3537C54.1202 39.181 54.0971 38.998 54.1117 38.8159C54.1117 37.8502 54.7132 37.3809 55.9487 37.3809H59.0697V38.3951H56.3722C56.1596 38.3753 55.9475 38.437 55.7787 38.5678C55.743 38.6026 55.7154 38.6447 55.6977 38.6913C55.68 38.7379 55.6727 38.7878 55.6762 38.8375C55.6762 39.1855 56.0701 39.2583 56.3992 39.2583H57.8181C58.2437 39.2523 58.6564 39.4052 58.9753 39.6872C59.109 39.8271 59.2126 39.9928 59.2799 40.1742C59.3471 40.3556 59.3766 40.5488 59.3664 40.742C59.3764 40.9279 59.3486 41.1138 59.2846 41.2886C59.2206 41.4634 59.1218 41.6234 58.9942 41.7589C58.6199 42.0768 58.1351 42.2339 57.6454 42.1959H56.9899L54.2654 42.1852Z" fill="#154B83"/>
<path d="M98.5389 25.4855C95.0887 19.9772 89.5022 16.8184 83.2142 16.8184C76.724 16.8184 70.7462 20.1363 67.6576 25.5017L67.5254 25.7202H69.7697L69.8129 25.642C72.6372 20.6569 77.4145 17.9109 83.3032 17.9109C88.5958 17.9109 93.9639 21.0885 96.362 25.6366L96.4051 25.7175H98.6846L98.5389 25.4855Z" fill="#BD1D21"/>
<path d="M60.3914 25.7504H58.1309L58.2873 25.4806C58.5571 25.0139 58.843 24.5607 59.1478 24.1318C62.4037 19.5298 67.8851 16.7676 73.8062 16.7676C79.9916 16.7676 85.1655 19.6863 89.1821 25.4428L89.3602 25.745H86.954L86.9 25.6425C84.92 21.9064 79.6167 17.9356 73.7145 17.9356C71.0166 17.9334 68.3666 18.6484 66.0359 20.0074C63.7052 21.3663 61.7777 23.3204 60.4507 25.6694L60.3914 25.7504Z" fill="#154B83"/>
<path d="M87.9954 43.6687H85.9075L85.8617 43.7281C84.4155 45.5999 82.5543 47.1103 80.4249 48.1402C78.2954 49.17 75.9558 49.6912 73.5906 49.6626C68.6811 49.6626 64.5458 47.6125 61.6324 43.7281L61.5866 43.666H59.4609L59.6525 43.9142C61.3245 46.0506 63.465 47.7744 65.9087 48.9525C68.3525 50.1307 71.0342 50.7317 73.7471 50.7093C79.304 50.7093 84.3187 48.3732 87.7014 44.0895C87.785 43.9843 87.9064 43.7982 87.9954 43.6687Z" fill="#154B83"/>
<path d="M83.1243 50.6317C80.4243 50.653 77.7555 50.0541 75.3235 48.8811C72.8915 47.7082 70.7613 45.9925 69.0971 43.8663L69 43.7422H71.007L71.0312 43.7719C74.0255 47.4998 78.2984 49.639 82.7547 49.639H83.0245C85.3537 49.5658 87.6418 49.006 89.7417 47.9956C91.8416 46.9851 93.7068 45.5464 95.2173 43.7719L95.2389 43.7449H97.2431L97.146 43.869C95.4822 45.9941 93.3528 47.7089 90.9218 48.8814C88.4908 50.0539 85.8231 50.6527 83.1243 50.6317Z" fill="#E60012" stroke="#E60012" stroke-width="0.134876" stroke-miterlimit="10"/>
<path d="M83.126 50.7112C80.4131 50.7337 77.7314 50.1326 75.2876 48.9545C72.8439 47.7763 70.7034 46.0526 69.0314 43.9161L68.8398 43.668H71.0383L71.0842 43.7246C74.0515 47.4337 78.3163 49.5621 82.7483 49.5621H83.0181C85.3415 49.4934 87.6248 48.9381 89.7203 47.9322C91.8159 46.9262 93.6771 45.4919 95.1839 43.7219L95.2298 43.668H97.4256L97.234 43.9161C95.5606 46.0544 93.418 47.7792 90.9717 48.9575C88.5255 50.1357 85.8411 50.7357 83.126 50.7112Z" fill="#BD1D21"/>
</g>
<defs>
<clipPath id="clip0_1_21519">
<rect width="53.9506" height="34.7307" fill="white" transform="translate(51.5176 16.5)"/>
</clipPath>
</defs>
</svg>
