<svg width="135" height="70" viewBox="0 0 135 70" fill="none" xmlns="http://www.w3.org/2000/svg">
<path fill-rule="evenodd" clip-rule="evenodd" d="M71.8015 13.337C71.6031 13.543 70.9053 14.5945 70.9053 15.8971C70.9053 16.209 70.9109 23.6767 70.9053 23.9445C70.8946 24.5128 70.5461 25.3222 70.2589 25.6075C70.0566 25.8091 68.8135 26.9352 68.7032 27.0534L69.4081 27.0645C69.6375 26.8459 72.0321 24.7314 72.2826 24.4469C72.6084 24.0779 73.3851 23.143 73.3851 21.6749L73.3891 13.9425C73.3891 12.7823 73.9319 12.1387 74.2111 11.828C74.4983 11.509 75.4419 10.7249 75.6092 10.5475L74.8695 10.5257C74.6907 10.7039 72.0476 13.0803 71.8015 13.337ZM65.8729 42.5995L68.8051 45.1513H70.7687C72.7649 45.1513 74.5899 44.3001 75.794 43.101C76.9988 41.9003 77.4425 40.2881 77.4425 38.7799V34.5969C77.4425 33.1911 76.5555 32.3733 76.3098 32.128C76.1751 31.9947 75.3212 31.1924 75.3212 31.1924V34.4017C75.3212 34.4017 76.2624 35.3699 76.4484 35.5663C77.3182 36.4868 77.3087 38.1629 74.5549 40.8373C74.0725 41.3051 72.6964 42.5995 70.803 42.5995H65.8729Z" fill="#C23C40"/>
<path fill-rule="evenodd" clip-rule="evenodd" d="M74.0288 25.4317C73.7022 25.7761 73.3887 26.6185 73.3887 27.3609V28.9449H75.0014C75.6275 28.9449 76.4552 28.3763 76.6344 28.0756C76.6452 28.0533 76.6344 26.5046 76.6344 26.5046C76.6344 26.5046 77.0482 27.0951 77.4955 27.407C77.6636 27.1955 79.1313 25.4222 80.3604 25.4123C82.4124 25.3956 81.9488 27.9752 81.1104 28.8005C80.8388 29.066 79.6268 30.1738 79.252 30.5289C78.2825 31.4483 76.6233 31.0083 76.6233 28.6327C76.6233 28.6327 74.8425 30.3171 74.5756 30.5401C74.3072 30.7631 73.3887 31.7324 73.3887 31.7324V35.9059C73.3887 37.9073 72.7276 38.5787 72.1799 39.1807C71.9668 39.4144 69.7045 41.4706 69.4018 41.6936L68.663 41.7102C68.663 41.7102 69.9869 40.5111 70.2522 40.2365C70.5541 39.9243 70.9058 39.2902 70.9058 38.2347C70.9058 37.9673 70.8723 31.6765 70.8723 31.6765H60.5812C57.0017 31.6765 56.2366 27.7188 56.2143 26.6602C56.2087 26.3483 56.2143 23.1874 56.2143 22.697C56.2143 22.0467 55.7965 20.9491 55.1294 20.6107H56.139C56.2553 20.6595 56.8898 20.9142 56.8898 23.3406C56.8898 23.3406 56.8468 26.1642 56.8468 26.3146C56.8468 27.5446 57.8286 28.956 59.2473 28.956L70.8954 28.9449C70.9062 28.6327 71.2188 27.449 71.7784 26.8233C72.0966 26.4705 74.5943 24.1933 74.8799 23.9743L75.6196 23.9659C75.5068 24.0683 74.2988 25.148 74.0288 25.4317ZM77.8532 27.8085C77.8532 27.8085 78.5275 28.7001 78.8489 28.9564C80.1035 29.9591 80.699 28.8822 79.857 27.7303C79.524 27.2764 78.2336 27.4074 77.8532 27.8085Z" fill="#C23C40"/>
<path fill-rule="evenodd" clip-rule="evenodd" d="M65.3638 35.2846C65.3638 35.8449 63.5671 37.332 63.4619 37.4368C63.3321 36.8333 62.8788 36.1667 61.5398 34.8318L63.5057 32.8733C64.8229 34.1875 65.3638 34.4672 65.3638 35.2846ZM68.7732 12.8339C69.1675 13.2267 70.0162 14.2925 69.5068 14.8008C69.0572 15.2492 68.3593 15.9603 68.3593 15.9603C68.3243 15.7039 67.6711 15.0869 67.6711 15.0869C67.6711 15.0869 67.6767 16.9784 67.6711 17.2126C67.6488 18.0665 67.3262 18.3101 67.3262 18.3101C67.3262 18.3101 68.9102 19.8758 68.9102 21.8872C68.9102 22.8625 68.9142 23.7597 68.9142 23.9533C68.9142 24.3656 68.8098 24.6846 68.5215 25.0008C68.3793 25.158 66.9108 26.6277 66.6873 26.8281C66.2619 27.2098 65.8146 27.2737 65.4793 27.2737H60.0191C59.1592 27.2737 58.2742 26.6051 58.2742 25.9365C58.2742 25.7694 58.2853 23.9192 58.2853 23.9192C58.5653 24.2426 58.8501 24.6203 59.5383 24.6104C60.0756 24.6021 60.6404 24.1815 60.7914 24.0311C60.9479 23.8736 64.9217 19.735 64.9217 19.735C64.9217 19.735 63.0604 18.0161 61.8345 17.1995C61.2363 16.7999 60.4417 17.3042 60.3218 17.8292C59.9458 19.4755 60.3218 21.9451 60.3218 21.9451L58.8142 20.4468C58.2076 19.8409 58.2295 18.4704 58.9529 17.7498C59.0676 17.6351 60.1692 16.3944 61.5688 16.3944H63.7487C65.2112 16.3944 66.8108 17.8458 66.8108 17.8458C66.8108 17.8458 67.0458 17.5895 67.0458 17.3415C67.0458 16.5947 67.0179 14.5806 67.0179 14.5806C65.9174 13.4847 65.7676 12.3534 66.295 11.828C67.2796 10.8476 67.6372 10.502 67.6372 10.502C67.6372 10.502 67.6253 11.6915 68.7732 12.8339ZM61.9229 23.7632C61.3848 24.3247 61.2912 24.4652 60.7878 24.7659H66.937C68.6035 24.7659 68.2721 23.7351 67.9734 23.2157C67.3604 22.1499 65.4255 20.1695 65.4255 20.1695C65.4255 20.1695 62.0348 23.6446 61.9229 23.7632Z" fill="#C23C40"/>
<path fill-rule="evenodd" clip-rule="evenodd" d="M54.9109 29.3394H53.9017C53.9017 29.3394 54.9862 29.933 54.9862 31.4638V36.3531C54.9862 39.535 57.6205 42.4769 60.8212 42.4769H63.4946C65.0997 42.4769 65.6629 42.0896 66.6331 41.2317C66.9888 40.9167 67.4512 40.3996 67.6205 40.2119C68.1801 39.5882 68.7751 39.0839 68.7751 37.4455V35.8452C68.7751 34.462 67.9714 33.8862 67.5826 33.4994C67.3337 33.2514 66.6498 32.6002 66.6498 32.6002V35.8782C66.6498 35.8782 67.3238 36.5932 67.6205 36.8257C69.0085 37.9177 67.9037 39.8136 66.6164 39.8136C66.3591 39.8136 61.1032 39.8152 60.7451 39.8243C58.5832 39.8778 55.6609 37.9566 55.6609 34.7263V32.0697C55.6613 29.3394 54.9109 29.3394 54.9109 29.3394Z" fill="#C23C40"/>
<path fill-rule="evenodd" clip-rule="evenodd" d="M61.3454 35.2934C61.3454 35.8517 59.5487 37.3409 59.4443 37.4456C59.3157 36.8421 58.8612 36.1755 57.5214 34.8407L59.4873 32.8821C60.8061 34.1955 61.3454 34.474 61.3454 35.2934ZM40.7898 57.0378C40.4696 57.0378 37.9986 57.0338 37.6453 57.0338C36.6536 57.0338 36.7292 56.2136 36.6424 55.5125V51.0172C36.6424 51.0172 37.3307 51.0005 38.1105 51.0005C38.982 51.0005 40.0669 50.8724 41.1224 51.4676C41.1224 51.4676 40.3633 49.6439 38.105 49.6439H36.6424V48.2035C36.6424 48.2035 36.6424 46.9485 36.3349 46.5779C36.3349 46.5779 38.2798 46.585 38.4124 46.585C40.2107 46.5862 41.6008 46.5588 43.0462 47.5183C43.0462 47.5183 42.7694 45.1474 39.2962 45.1474H32.5117C32.5117 45.1474 33.6895 46.1517 33.6568 48.1964L33.6895 56.3878C33.6895 58.444 34.5155 58.5008 34.5155 58.5008H41.2021C42.7176 58.5008 43.2449 57.4211 43.2449 56.8362L43.2676 56.0509C43.2676 56.0502 42.7865 57.0378 40.7898 57.0378ZM58.5896 56.3454V50.616C58.5896 48.3928 56.7662 47.802 55.4084 47.802C53.6105 47.802 53.0724 49.2983 52.843 49.8121C52.4419 48.4174 51.0407 47.7857 49.8913 47.7857C47.7198 47.7857 47.1689 49.8455 47.1689 49.8455C47.1689 49.8455 47.1175 47.8563 45.3738 47.8563L43.6651 47.8603C43.6651 47.8603 44.6549 48.2658 44.6549 49.9847L44.6521 56.3466C44.6521 58.4472 45.5025 58.4837 45.5025 58.4837H48.3184C48.2455 58.4472 47.2374 57.6897 47.2374 56.3287V50.6855C47.2721 50.4347 47.6975 49.5824 48.9122 49.5824C49.6005 49.5824 50.3569 50.297 50.3397 51.1005L50.3373 56.3438C50.3373 58.475 51.1761 58.4809 51.1761 58.4809H54.0032C54.0032 58.4809 52.9223 57.723 52.9223 56.3259L52.9139 50.6811C53.0198 50.3665 53.3919 49.5998 54.4589 49.5998C55.3088 49.5998 56.0206 50.3145 56.0039 51.1184C56.0039 51.1184 55.9983 55.9045 56.0011 56.3489C56.0138 58.494 56.8403 58.4746 56.8403 58.4746C58.3124 58.4746 59.6674 58.4805 59.6674 58.4805C59.6674 58.4805 58.5896 57.7385 58.5896 56.3454ZM63.5296 56.343C63.5296 57.7552 64.6146 58.4813 64.6146 58.4813C64.6146 58.4813 63.2699 58.4754 61.7986 58.4754C61.7986 58.4754 60.9347 58.4881 60.9347 56.3593L60.9375 49.9701C60.9375 48.2876 59.9589 47.8555 59.9589 47.8555H61.6676C62.2702 47.8555 63.5244 47.8555 63.5244 50.2347L63.5201 56.3331L63.5296 56.343ZM72.206 48.6571C72.206 48.6571 71.9344 47.8924 70.7646 47.8924C68.9958 47.8924 68.5648 49.9863 68.5648 49.9863C68.4211 48.3313 67.9758 47.842 66.7275 47.842L65.0188 47.8464C65.0188 47.8464 66.009 48.2507 66.009 49.9697L66.0058 56.3398C66.0058 58.442 66.8558 58.4766 66.8558 58.4766H69.6717C69.5992 58.442 68.5911 57.6842 68.5911 56.3228L68.5943 51.1073C68.6684 50.6343 68.9133 50.2704 69.285 50.0308C70.213 49.432 71.4804 49.5741 72.206 50.4569V48.6571ZM85.3473 49.042C86.3012 49.042 87.013 49.457 87.013 49.457L87.0214 47.854H84.6527L84.6543 45.4232C84.6543 45.4232 84.0322 46.4957 82.7584 47.5377C81.9587 48.192 80.2791 49.0003 80.2791 49.0003L82.0674 49.0324L82.0642 56.4251C82.0642 58.4754 82.9245 58.4754 82.9245 58.4754C84.4695 58.4754 85.7373 58.4813 85.7373 58.4813C85.7373 58.4813 84.6499 57.7552 84.6499 56.4069L84.6523 49.038C85.3947 49.0404 84.8837 49.042 85.3473 49.042ZM93.9106 52.2516C92.3306 53.8979 91.0907 53.64 90.0974 54.8463C90.0974 54.8479 90.2567 56.4819 91.5117 57.0584C91.9403 57.2564 93.6796 57.8818 94.8068 55.9442L94.7988 57.6588C94.7988 57.6588 94.0755 58.4956 91.7798 58.4956C89.0128 58.4956 87.1177 56.3283 87.1177 53.3889C87.1177 50.4986 88.6627 47.8155 91.5798 47.8004C94.4388 47.7857 95.9869 50.0871 93.9106 52.2516ZM92.1812 51.5771C92.6488 50.7164 93.0169 48.5305 91.4189 48.6503C89.5676 48.7888 89.9197 53.6932 89.9197 53.6932C90.5391 53.023 91.4679 52.8865 92.1812 51.5771ZM62.2208 46.9957C62.9465 46.9957 63.5352 46.4219 63.5352 45.7144C63.5352 45.0069 62.9465 44.4328 62.2208 44.4328C61.4951 44.4328 60.9065 45.0069 60.9065 45.7144C60.9065 46.4219 61.4951 46.9957 62.2208 46.9957ZM75.1403 57.2759C74.4978 57.2759 74.0386 56.61 74.0386 55.9275C74.0386 53.2754 76.2184 52.9091 76.8011 52.2012L76.8059 56.6731C76.5482 56.9009 76.287 57.2759 75.1403 57.2759ZM76.8011 51.1775C76.146 52.3211 71.0494 52.5635 71.8309 56.4906C72.1395 58.048 73.1815 58.502 74.4915 58.502C75.764 58.502 76.5287 57.8401 76.8493 57.2243C77.0393 58.4067 77.6388 58.475 77.6388 58.475C79.1113 58.475 80.4555 58.4809 80.4555 58.4809C80.4555 58.4809 79.3586 57.7548 79.3586 56.3537V50.3835C79.3586 48.9555 77.7694 47.844 76.0798 47.844C74.4564 47.844 73.4356 48.6229 73.4356 48.6229V50.4756C73.4356 50.4756 74.0151 49.0078 75.484 49.0078C76.9179 49.0078 77.0234 49.7193 77.015 50.0744C77.015 50.0744 77.16 50.5549 76.8011 51.1775ZM100.146 55.5958C100.161 56.347 99.4867 57.3334 98.0521 57.3334C96.5832 57.3334 95.9969 55.8359 95.9969 55.8359V57.7334C95.9969 57.7334 97.0564 58.4857 98.6798 58.4857C100.607 58.4857 102.555 57.0267 102.511 54.9959C102.497 54.2812 102.241 53.6726 101.85 53.1476C101.198 52.277 100.011 51.6683 99.092 51.1053C98.5679 50.7835 98.2891 50.2085 98.2831 50.0062C98.2676 49.6506 98.4404 48.9324 99.8755 48.9324C101.275 48.9324 101.871 50.4002 101.871 50.4002L101.865 48.6229C101.865 48.6229 100.794 47.7758 99.1705 47.7758C97.4809 47.7758 95.9475 48.8876 95.9762 50.3149C96.0025 51.5687 96.533 52.381 97.5622 53.146C97.9689 53.448 98.4544 53.742 99.016 54.0527C99.8361 54.5054 100.135 55.0598 100.146 55.5958Z" fill="#C23C40"/>
</svg>
