<svg width="184" height="70" viewBox="0 0 184 70" fill="none" xmlns="http://www.w3.org/2000/svg">
<path d="M51.7177 49.461C59.5236 49.461 65.8515 43.0902 65.8515 35.2315C65.8515 27.3727 59.5236 21.002 51.7177 21.002C43.9119 21.002 37.584 27.3727 37.584 35.2315C37.584 43.0902 43.9119 49.461 51.7177 49.461Z" fill="white"/>
<path d="M50.0807 21.6349C48.4497 21.8257 46.8793 22.3385 45.4224 23.0843C45.4255 23.1233 45.4637 23.1296 45.4917 23.1424C46.0095 23.3786 46.6343 23.5578 47.1759 23.7828C50.8178 25.2978 55.945 28.4152 55.6652 33.0116C55.565 34.6574 54.6513 36.0649 53.4867 37.1566C53.6041 37.1537 53.7227 37.1617 53.8401 37.1566C56.7056 37.0287 59.5756 36.6532 62.4411 36.5575C62.5891 36.5526 62.8528 36.5179 62.9236 36.6734C63.0031 36.8483 62.7555 36.946 62.6262 36.9714L40.6973 43.2532L40.9689 43.6489C45.1117 49.0344 52.6975 50.5118 58.5709 47.0753C62.075 45.0251 64.554 41.3864 65.1683 37.3372C66.5341 28.3328 59.0584 20.584 50.0807 21.6349Z" fill="#C60A0C"/>
<path d="M47.652 36.4523C49.1471 32.3233 48.2793 27.0141 44.9429 24.0385C44.8764 23.9793 44.5157 23.6679 44.4687 23.6585C44.4398 23.6528 44.4311 23.6585 44.4067 23.6679C44.2684 23.7215 43.8482 24.0479 43.7007 24.1559C38.8517 27.708 36.8738 34.1439 38.8944 39.8708C39.2255 40.8089 39.6802 41.6911 40.1938 42.5378C43.5465 41.7108 46.433 39.8195 47.652 36.4523Z" fill="#C60A0C"/>
<path d="M117.252 36.9746C117.809 37.0316 118.452 37.4355 118.777 37.8888C120.032 39.9872 121.43 42.0272 122.619 44.1629C122.739 44.3799 122.844 44.6301 122.967 44.838C122.987 44.8731 123 44.9272 123.052 44.9229L123.01 36.9746H125.302V48.3411H122.458L118.669 42.271C118.302 41.707 118.021 41.0526 117.667 40.4874C117.648 40.4569 117.637 40.415 117.592 40.4213L117.634 48.3411H115.342V36.9746H117.252Z" fill="black"/>
<path d="M135.883 22.1328V26.6623H140.637V22.1755C140.637 22.1724 140.676 22.1328 140.68 22.1328H143.269V33.4993H140.637V28.7134H135.883V33.4993H133.252V22.1328H135.883Z" fill="black"/>
<path d="M110.134 22.1328V27.1181L110.287 26.9728C111.46 25.351 112.689 23.7686 113.841 22.1328H116.558L112.63 27.242L117.435 33.4708H115.157C114.758 33.4708 114.155 33.1626 113.856 32.9002C112.627 31.4898 111.567 29.9273 110.388 28.4724C110.31 28.377 110.239 28.2699 110.134 28.2007V33.4993H107.531V22.1328H110.134Z" fill="black"/>
<path d="M87.0184 22.1328L87.0173 29.3555C87.1123 30.6158 87.6774 31.5126 89.0118 31.5921C90.4668 31.6787 91.2764 30.905 91.4054 29.4695L91.4042 22.1328H93.8377L93.8388 29.6689C93.6857 31.9972 92.486 33.2808 90.198 33.5526C87.4344 33.8808 84.5963 33.033 84.4141 29.8113L84.4152 22.1328H87.0184Z" fill="black"/>
<path d="M134.752 36.9746V37.9859C134.752 38.4773 134.283 39.0827 133.775 39.0827H130.253V41.5326H134.073V43.4413H130.253V46.233H134.752V48.3411H127.678V36.9746H134.752Z" fill="black"/>
<path d="M130.452 24.5841C130.001 24.3773 129.529 24.2117 129.042 24.1086C128.16 23.9217 126.142 23.6879 126.065 25.0245C126.006 26.0492 127.203 26.2509 127.924 26.5734C129.437 27.2496 130.98 27.8695 131.104 29.7819C131.323 33.1651 128.283 33.8921 125.546 33.5539C124.869 33.4702 124.214 33.2799 123.576 33.0449V30.8798C124.147 31.1234 124.721 31.3575 125.33 31.4926C126.16 31.6766 127.906 31.8578 128.369 30.9337C129.144 29.3851 126.875 28.9313 125.906 28.492C124.485 27.8482 123.61 26.9745 123.575 25.3116C123.504 21.929 127.221 21.5493 129.723 22.2276C129.971 22.2948 130.223 22.3726 130.452 22.4902V24.5841H130.452Z" fill="black"/>
<path d="M143.693 37.2875V39.3956C143.166 39.1774 142.645 38.9982 142.081 38.8965C141.191 38.7358 139.289 38.5854 139.305 39.9511C139.316 40.8724 140.478 41.0897 141.137 41.3849C142.981 42.2099 144.494 42.8468 144.372 45.2213C144.202 48.5119 140.318 48.8218 137.846 48.2022C137.506 48.117 137.181 47.984 136.846 47.8851V45.7201C137.427 45.9571 138.01 46.2007 138.628 46.3328C139.574 46.5351 141.618 46.7086 141.74 45.3349C141.803 44.6299 141.463 44.3199 140.883 44.0342C139.118 43.1653 137.001 42.8873 136.844 40.4083C136.595 36.4782 140.966 36.2802 143.693 37.2878L143.693 37.2875Z" fill="black"/>
<path d="M79.4912 24.2409V33.4993H76.8597V24.2409H73.832V22.1328H82.5613C82.5644 22.1328 82.6037 22.1724 82.6037 22.1755V23.1441C82.6037 23.5786 82.1818 24.2409 81.7124 24.2409H79.4912Z" fill="black"/>
<path d="M104.475 46.29H108.606V48.3411H101.844V36.9746H103.358C103.849 36.9746 104.475 37.7002 104.475 38.1853V46.29Z" fill="black"/>
<path d="M88.319 36.9746H85.6875V48.3411H88.319V36.9746Z" fill="black"/>
<path d="M112.964 36.9746H110.332V48.3411H112.964V36.9746Z" fill="black"/>
<path d="M121.454 33.4993H118.822V22.1328H121.411C121.414 22.1328 121.454 22.1724 121.454 22.1755V33.4993Z" fill="black"/>
<path d="M102.722 28.4972C102.71 28.4371 102.734 28.4656 102.761 28.4539C104.337 27.7648 105.021 26.1636 104.574 24.4967C104.141 22.8789 102.714 22.2064 101.152 22.1309L96.2695 22.132V33.5555H98.901V29.083H100.16C100.935 30.2854 101.628 31.5417 102.424 32.7296C102.742 33.0968 103.356 33.4504 103.842 33.4948C103.997 33.5091 104.103 33.47 104.234 33.4686C104.786 33.4632 105.338 33.4752 105.89 33.4695L102.722 28.497V28.4972ZM101.212 27.1797C101.105 27.223 100.8 27.317 100.698 27.317H98.9293V24.1549H100.726C102.284 24.1549 102.589 26.6253 101.212 27.1797Z" fill="black"/>
<path d="M97.091 43.3692C98.6155 42.7288 99.3345 41.1503 99.0012 39.5368C98.6611 37.8902 97.2856 37.0578 95.6909 36.9727L90.6387 36.9741V48.3976H93.2702V43.925H94.5718C94.5735 43.9595 94.5859 43.9906 94.6043 44.0193C95.3361 45.1771 96.014 46.369 96.7644 47.5147C97.074 47.8879 97.8015 48.3406 98.2927 48.3406H100.259L97.0907 43.3692H97.091ZM95.443 42.0813C94.782 42.2474 94.0064 42.1155 93.3268 42.1588L93.3553 38.9964H95.2653C96.8657 39.1776 96.9333 41.7067 95.443 42.081V42.0813Z" fill="black"/>
<path d="M79.9309 36.9727L76.9474 36.9775L72.7285 48.3412H74.7517C74.8391 48.3412 75.1172 48.2195 75.1999 48.1657C75.7352 47.8164 75.7963 46.8376 76.0439 46.2807L76.0855 46.2371L80.6341 46.2314L81.3021 48.3412H84.1034L79.9309 36.9727ZM76.7468 44.2108L78.3458 39.51L79.9725 44.2108H76.7468Z" fill="black"/>
</svg>
