<svg width="151" height="70" viewBox="0 0 151 70" fill="none" xmlns="http://www.w3.org/2000/svg">
<path d="M36.269 32.5549C36.269 35.1843 35.2173 37.706 33.3453 39.5653C31.4732 41.4246 28.9343 42.4691 26.2868 42.4691C23.6394 42.4691 21.1004 41.4246 19.2284 39.5653C17.3564 37.706 16.3047 35.1843 16.3047 32.5549C16.3047 29.9255 17.3564 27.4037 19.2284 25.5444C21.1004 23.6852 23.6394 22.6406 26.2868 22.6406C28.9343 22.6406 31.4732 23.6852 33.3453 25.5444C35.2173 27.4037 36.269 29.9255 36.269 32.5549Z" fill="white"/>
<path d="M26.2873 22.5C23.6016 22.5006 21.0261 23.5605 19.127 25.4467C17.2279 27.3328 16.1608 29.8908 16.1602 32.5583C16.1605 35.2259 17.2275 37.7842 19.1266 39.6706C21.0257 41.557 23.6014 42.6171 26.2873 42.6177C28.973 42.6171 31.5485 41.5572 33.4476 39.671C35.3467 37.7848 36.4138 35.2268 36.4144 32.5594C36.4141 29.8918 35.3471 27.3335 33.448 25.4471C31.5489 23.5607 28.9732 22.5006 26.2873 22.5ZM26.6869 22.7846C28.2295 22.848 29.7351 23.2736 31.0803 24.0263C30.7753 24.4673 30.4103 24.8641 29.9956 25.2056C29.0416 24.2159 27.9226 23.3972 26.688 22.7858M25.8865 22.7858C24.6536 23.3962 23.5358 24.2133 22.5824 25.2011C22.1733 24.8569 21.8151 24.4573 21.5183 24.0138C22.8575 23.2694 24.3543 22.8487 25.8877 22.7858M26.035 22.9842C25.3185 23.9727 24.7013 25.0286 24.1922 26.1366C23.6921 25.9438 23.2218 25.6819 22.7845 25.3451C23.7234 24.3786 24.823 23.58 26.035 22.9842ZM26.5419 22.9842C27.7548 23.58 28.8552 24.3791 29.7947 25.3463C29.3639 25.6732 28.8883 25.9374 28.3824 26.131C27.8736 25.025 27.2572 23.9711 26.5419 22.9842ZM26.1651 23.2337V25.7567C26.1802 25.7394 26.1986 25.7252 26.2193 25.7151C26.2399 25.7049 26.2625 25.699 26.2855 25.6978C26.3085 25.6965 26.3316 25.6999 26.3533 25.7077C26.375 25.7155 26.3949 25.7275 26.4117 25.7431V23.2337C27.0859 24.171 27.6693 25.1695 28.154 26.216C27.6504 26.3911 27.1255 26.4986 26.5933 26.5358L26.6367 26.7716C27.1897 26.7303 27.7348 26.6167 28.2579 26.4337C28.653 27.3341 28.9772 28.2821 29.1736 29.3582L29.3974 29.2528L29.4019 29.2505C29.1998 28.1891 28.8767 27.2434 28.4863 26.3498C29.0115 26.1457 29.5081 25.8735 29.9682 25.522C30.8364 26.4629 31.5185 27.5577 31.9788 28.7493C31.2147 29.0111 30.4324 29.2176 29.6383 29.3673C29.6463 29.4047 29.6428 29.4444 29.6269 29.4807L29.5515 29.636C30.4044 29.4807 31.2413 29.263 32.0622 28.9806C32.4641 30.0896 32.6775 31.2573 32.6935 32.4358H31.8338C31.8509 32.4513 31.8647 32.4701 31.8743 32.491C31.8839 32.512 31.8892 32.5346 31.8897 32.5576C31.8902 32.5806 31.8861 32.6035 31.8774 32.6248C31.8688 32.6462 31.8559 32.6656 31.8395 32.6819H32.6935C32.6913 32.8406 32.6855 32.9971 32.6764 33.1547L32.9207 33.1887C32.9322 33.0187 32.939 32.8508 32.9401 32.6819H36.1564C36.1347 34.3715 35.6563 35.9375 34.8788 37.3198C34.649 37.1877 34.4152 37.0626 34.1778 36.9444L34.075 37.1667C34.3068 37.2824 34.5363 37.4037 34.7623 37.5341C33.9234 38.9429 32.7423 40.1203 31.3269 40.9587C31.2207 40.7999 31.1042 40.6514 30.9866 40.5074C30.9124 40.5482 30.8359 40.5867 30.7606 40.6242C30.8836 40.7694 30.9991 40.9208 31.1065 41.0777C29.755 41.8386 28.2403 42.2686 26.688 42.3319C27.2361 42.0575 27.7407 41.7536 28.2122 41.4281C28.028 41.4578 27.8429 41.4827 27.6574 41.503C27.2965 41.7317 26.9242 41.9421 26.5419 42.1335C26.6789 41.9418 26.8068 41.7513 26.9347 41.5597C26.8319 41.5653 26.7291 41.5687 26.6241 41.571C26.5533 41.6753 26.4871 41.7797 26.4117 41.8829V41.5767L26.3056 41.5778L26.1651 41.5744V41.8829C26.0909 41.7797 26.0236 41.6753 25.9528 41.571C25.8477 41.5676 25.7438 41.5631 25.6399 41.5574C25.7689 41.7502 25.8968 41.9407 26.035 42.1335C25.6494 41.9402 25.274 41.7275 24.9104 41.4962C24.7201 41.4735 24.5305 41.4455 24.3418 41.4123C24.8202 41.7445 25.3328 42.0529 25.8877 42.3308C24.3451 42.2677 22.8396 41.8426 21.4943 41.0902C21.6081 40.9193 21.7316 40.755 21.8642 40.5981C21.7889 40.5595 21.7158 40.5187 21.6416 40.4779C21.5105 40.636 21.3882 40.801 21.2751 40.9723C19.8492 40.1333 18.6594 38.9508 17.8157 37.5341C18.0463 37.4037 18.2815 37.2824 18.5201 37.1656C18.4836 37.0919 18.4516 37.0159 18.4174 36.9422C18.1738 37.0604 17.9339 37.186 17.6981 37.3186C16.9194 35.9375 16.4422 34.3715 16.4193 32.6807H19.6367C19.6379 32.844 19.6447 33.005 19.6538 33.1672L19.8993 33.1423C19.8913 32.988 19.8845 32.8361 19.8833 32.6807H20.7168C20.7004 32.6646 20.6875 32.6454 20.6788 32.6243C20.6701 32.6031 20.6658 32.5804 20.6661 32.5575C20.6664 32.5347 20.6714 32.5121 20.6807 32.4912C20.69 32.4703 20.7034 32.4514 20.7202 32.4358H19.8822C19.8981 31.252 20.113 30.0792 20.5181 28.9659C21.3368 29.2471 22.1748 29.4659 23.0322 29.6247L22.9637 29.4796C22.945 29.4414 22.9414 29.3978 22.9534 29.3571C22.1558 29.2049 21.3698 28.9973 20.6015 28.7357C21.0623 27.5479 21.7435 26.4567 22.6098 25.5186C23.0586 25.8675 23.5568 26.1487 24.0883 26.3532C23.6753 27.2798 23.3693 28.2498 23.1761 29.2448L23.1909 29.2516L23.4033 29.3525C23.5912 28.3498 23.897 27.3724 24.3144 26.4405C24.8421 26.6254 25.3923 26.7391 25.9505 26.7784L25.9939 26.5414C25.4566 26.5067 24.9265 26.3995 24.4183 26.2228C24.8875 25.2011 25.4595 24.2202 26.164 23.2337M21.2979 24.1329C21.6176 24.6171 21.9944 25.0253 22.4077 25.3769C21.5294 26.3354 20.8383 27.4478 20.3697 28.6574C19.4966 28.3538 18.6513 27.9763 17.8431 27.5291C18.6913 26.1278 19.8795 24.9598 21.2991 24.1318M31.3006 24.1454C32.7094 24.9729 33.8885 26.1358 34.7315 27.5291C33.9264 27.9833 33.0824 28.3658 32.2094 28.6722C31.7417 27.4588 31.0502 26.3428 30.1703 25.3814C30.6031 25.0236 30.9835 24.6076 31.3006 24.1454ZM17.7243 27.7446C18.5372 28.2027 19.4004 28.5724 20.2864 28.8899C19.8715 30.0275 19.6511 31.226 19.6344 32.4358H16.4193C16.441 30.7235 16.9297 29.1371 17.7266 27.7446M34.8491 27.7446C35.6449 29.1394 36.1347 30.7246 36.1564 32.4358H32.9401C32.9232 31.2312 32.7045 30.0378 32.2928 28.9046C33.1719 28.5871 34.0328 28.2129 34.8491 27.7446ZM23.6956 29.4909L24.4343 29.839C24.7448 29.8753 25.0554 29.9059 25.3671 29.9252L25.4127 29.6803C24.8362 29.6462 24.2641 29.5782 23.6956 29.4898M28.8733 29.5C28.3093 29.5839 27.743 29.6474 27.1756 29.6791L27.2212 29.9241C27.5295 29.9059 27.8378 29.8787 28.1437 29.8447L28.8733 29.5ZM23.0825 29.7279C22.9774 30.436 22.9152 31.1498 22.8964 31.8654L23.1464 31.8019C23.1658 31.2122 23.2092 30.6566 23.2754 30.1327L23.0813 29.7279M29.4956 29.7506L29.3015 30.1543C29.3665 30.6736 29.4099 31.2202 29.4293 31.8019L29.6782 31.8654C29.6554 31.1091 29.5949 30.4071 29.4956 29.7506ZM22.8964 33.2568C22.9215 34.0177 22.9843 34.7253 23.0859 35.3852L23.28 34.9793C23.2126 34.4565 23.1658 33.9065 23.1464 33.3192L22.8964 33.2568ZM29.6782 33.2568L29.4282 33.3203C29.4076 33.8986 29.3631 34.4418 29.2969 34.9577L29.491 35.3626C29.5903 34.7083 29.6543 34.0097 29.6782 33.2568ZM25.3545 35.1244C25.1162 35.1395 24.8783 35.1596 24.6409 35.1845L23.9216 35.5247C24.4114 35.4544 24.9035 35.4 25.4002 35.3694L25.3545 35.1244ZM27.2338 35.1256L27.1881 35.3716C27.6768 35.3988 28.1632 35.4487 28.6472 35.5156L27.9405 35.1823C27.7053 35.1584 27.4701 35.1403 27.2338 35.1256ZM29.5115 35.4056L29.6257 35.6415C29.6303 35.6551 29.6348 35.6676 29.6371 35.6823C30.3107 35.8093 30.9718 35.9772 31.6237 36.1847C31.6591 36.1132 31.6922 36.035 31.7265 35.9602C31.0015 35.726 30.2615 35.5404 29.5115 35.4045M23.071 35.4159C22.326 35.5529 21.5907 35.7377 20.8698 35.9692C20.9063 36.0441 20.9451 36.1166 20.984 36.1904C21.6283 35.9872 22.284 35.8213 22.9477 35.6937C22.95 35.6755 22.9546 35.6585 22.9626 35.6415L23.071 35.4159ZM29.1747 35.7651C28.9871 36.7564 28.6848 37.7229 28.2739 38.6454C27.7474 38.4595 27.1984 38.3439 26.6412 38.3018L26.5967 38.5377C27.0717 38.5683 27.5386 38.6658 27.9965 38.8098C28.1769 38.7758 28.3504 38.7406 28.5159 38.6964C28.8927 37.8233 29.2056 36.9047 29.4031 35.8728C29.4008 35.8718 29.3985 35.8706 29.3962 35.8694L29.1747 35.7651ZM23.3999 35.7708L23.1909 35.8694L23.1727 35.8774C23.3679 36.8945 23.675 37.804 24.0449 38.6669C24.2196 38.7168 24.4023 38.7599 24.593 38.7973C25.0497 38.6556 25.5155 38.5592 25.9893 38.532L25.9448 38.2939C25.3824 38.3348 24.8282 38.4512 24.2973 38.6397C23.8883 37.7208 23.5872 36.7581 23.3999 35.7708Z" fill="#FE3501"/>
<path d="M91.2277 27.6041V37.608H94.4097V34.1312H96.1474C96.6075 34.1312 97.0197 34.4907 97.0197 34.9477V37.608H100.204V33.7706C100.204 33.1651 99.8706 33.0234 99.6194 33.0052C99.8706 33.0007 100.204 32.8306 100.204 32.2194V29.0386C100.204 27.8672 99.6696 27.6041 98.8385 27.6041H91.2277ZM94.4097 30.0796H96.5379C96.8598 30.0796 97.0197 30.2678 97.0197 30.5876V31.4131C97.0197 31.7318 96.8598 31.8803 96.5379 31.8803H94.4097V30.0796ZM111.062 27.6041H119.811V30.0796H114.244V31.429H119.811V33.6584H114.244V35.1439H119.811V37.608H111.062V27.6041ZM101.291 27.6041H110.04V30.0796H104.473V31.429H110.04V33.6584H104.473V35.1439H110.04V37.608H101.29V27.6041M40.7416 27.6041H49.4906V30.0796H43.9236V31.429H49.4906V33.6584H43.9236V35.1439H49.4906V37.608H40.7416V27.6041ZM120.79 27.6041H124.067L127.036 32.9496V27.6041H130.335V37.608H127.036L124.067 32.1615V37.608H120.79V27.6041ZM81.6543 37.4254C81.4145 37.2946 81.2025 37.119 81.0298 36.9083C80.8014 36.6021 80.7946 36.4593 80.7946 32.6106C80.7946 27.1936 80.4144 27.603 85.4528 27.603C88.4715 27.603 88.9065 27.6257 89.2548 27.7992C89.8976 28.1201 90.1088 28.6145 90.1099 29.7972V30.8099L86.9508 30.8235V30.5071C86.9508 30.2984 86.6996 30.0784 86.4895 30.0784H84.4915C84.262 30.0784 83.9971 30.3279 83.9971 30.557V34.6359C83.9971 34.8717 84.2551 35.1439 84.4926 35.1439H86.4792C86.7133 35.1439 86.9508 34.8626 86.9508 34.6325V33.9056H85.2462V31.8316L90.1099 31.8214V34.129C90.1099 36.6475 90.0643 36.8766 89.45 37.3267C89.1417 37.5524 88.9762 37.5762 85.5864 37.6057C82.3827 37.6329 82.0071 37.6046 81.6543 37.4243M70.7382 27.6041V37.608H73.9202V34.1312H75.6579C76.118 34.1312 76.5302 34.4907 76.5302 34.9477V37.608H79.7145V33.7706C79.7145 33.1651 79.3811 33.0234 79.1299 33.0052C79.3811 33.0007 79.7145 32.8306 79.7145 32.2194V29.0386C79.7145 27.8672 79.1802 27.6041 78.349 27.6041H70.7382ZM73.9202 30.0796H76.0484C76.3704 30.0796 76.5302 30.2678 76.5302 30.5876V31.4131C76.5302 31.7318 76.3704 31.8803 76.0484 31.8803H73.9202V30.0796ZM60.9673 27.6041H69.7164V30.0796H64.1493V31.429H69.7164V33.6584H64.1493V35.1439H69.7164V37.608H60.9673V27.6041ZM50.041 27.6041H53.4376L55.1605 34.019L56.8902 27.6041H60.3005L56.953 37.608H53.3668L50.041 27.6041ZM27.5729 39.1808L28.1038 41.2968L28.7774 41.1301L28.5924 40.3941L28.9601 40.3034C29.0571 40.2796 29.1633 40.334 29.1884 40.4304L29.3288 40.9929L30.0025 40.8262L29.7981 40.0154C29.7661 39.8872 29.6885 39.8748 29.6337 39.8838C29.6873 39.8691 29.7479 39.8158 29.7159 39.6865L29.5469 39.0141C29.4853 38.7669 29.3585 38.7385 29.1816 38.7828L27.5729 39.1808ZM28.3766 39.538L28.8276 39.4257C28.8961 39.4098 28.9395 39.4405 28.9555 39.5085L29 39.6831C29.0172 39.7512 28.9909 39.7897 28.9224 39.8079L28.4725 39.9179L28.3766 39.538ZM31.2903 37.1657L32.2871 35.551L32.7506 35.8345L32.1158 36.8607L32.3681 37.0149L33.0029 35.9875L33.4197 36.2415L32.7849 37.2689L33.0634 37.4379L33.6982 36.4105L34.1584 36.6917L33.1616 38.3054L31.2903 37.1657ZM29.5983 38.4857L31.1282 37.354L31.4513 37.7871L30.4786 38.5072L30.6555 38.7431L31.6294 38.023L31.9206 38.412L30.9478 39.132L31.1419 39.3928L32.1158 38.6716L32.4389 39.1025L30.909 40.2342L29.5983 38.4857ZM19.8902 33.3737L20.1322 35.2527L19.5933 35.3208L19.4392 34.1256L19.1458 34.163L19.2988 35.3582L18.8135 35.4194L18.6605 34.2242L18.3363 34.265L18.4904 35.4602L17.9538 35.5283L17.7129 33.6504L19.8902 33.3737ZM32.367 35.3548L32.4812 34.654L33.7439 34.2072L32.5862 34.0201L32.7004 33.3159L34.8674 33.6663L34.7532 34.3705L33.4688 34.8139L34.6482 35.0044L34.534 35.7052L32.367 35.3548ZM25.4333 41.3024C25.3876 41.2786 25.3259 41.2276 25.2985 41.189C25.2483 41.1233 25.2472 41.0915 25.2472 40.2535C25.2472 39.0731 25.1638 39.1615 26.2622 39.1615C26.9198 39.1615 27.0157 39.166 27.0911 39.2046C27.2303 39.2749 27.2772 39.3826 27.2772 39.64V39.8612L26.5887 39.8634V39.7954C26.5887 39.75 26.5339 39.7013 26.4882 39.7013H26.0532C26.003 39.7013 25.9448 39.7557 25.9448 39.8056V40.6946C25.9448 40.7457 26.0018 40.8046 26.0532 40.8046H26.4871C26.5373 40.8046 26.5887 40.7445 26.5887 40.6935V40.5347H26.2176V40.0834L27.2772 40.0811V40.5846C27.2772 41.1335 27.2669 41.1834 27.1333 41.2809C27.0659 41.3308 27.0305 41.3353 26.2907 41.3421C25.5931 41.3478 25.5109 41.3421 25.4344 41.3024M23.1498 38.6682L22.6269 40.7853L23.3005 40.9498L23.482 40.2138L23.8497 40.3034C23.9467 40.3272 24.0164 40.4247 23.9924 40.5211L23.8531 41.0847L24.5267 41.248L24.7277 40.4361C24.7585 40.3079 24.6957 40.2614 24.6432 40.2433C24.6968 40.2558 24.7768 40.2376 24.8087 40.1072L24.9743 39.4348C25.0359 39.1865 24.9366 39.1037 24.7608 39.0606L23.1498 38.6682ZM23.6933 39.3565L24.1443 39.4654C24.2128 39.4824 24.2356 39.53 24.2196 39.5981L24.1762 39.7727C24.1602 39.8407 24.1191 39.8634 24.0506 39.8476L23.5996 39.7376L23.6933 39.3565ZM21.4749 37.3449L22.9968 38.4857L22.6691 38.9166L21.701 38.1908L21.5228 38.4256L22.491 39.1513L22.1965 39.5391L21.2283 38.8134L21.0319 39.0719L22.0001 39.7977L21.6735 40.2263L20.1528 39.0844L21.4749 37.3449ZM20.2441 35.4228L20.606 36.0646L19.5625 37.0739L20.9737 36.7155L21.3379 37.3596L19.0658 37.7939L18.6845 37.117L20.2441 35.4228ZM29.3197 35.5623L27.1219 34.5247L26.3067 38.8939L25.4915 34.5247L23.2937 35.5623L24.3383 33.3794L21.1301 32.5698L24.3383 31.7601L23.2937 29.5772L25.4915 30.6148L26.3067 26.2207L27.123 30.6148L29.3209 29.5772L28.2762 31.7601L31.4525 32.5698L28.2762 33.3794L29.3209 35.5623" fill="#008738"/>
</svg>
