<svg width="137" height="70" viewBox="0 0 137 70" fill="none" xmlns="http://www.w3.org/2000/svg">
<g clip-path="url(#clip0_1_21556)">
<path d="M111.471 28.1548C111.332 28.1507 111.194 28.1711 111.063 28.2076C109.163 28.7723 102.249 31.1327 94.1071 32.2621C93.7442 32.3108 93.838 32.4815 94.2701 32.5059C99.7129 33.0177 101.768 33.0746 104.263 33.0502C106.656 32.9731 108.446 33.3021 110.46 31.1733C112.315 29.2639 112.343 28.1629 111.471 28.1548ZM36.72 29.6783L33.7724 30.5477L34.9996 31.4171V41.2648L33.7724 42.1098H37.9227L36.72 41.2648V36.0728L37.8412 35.2847C38.7993 34.5209 39.7125 34.3584 40.3526 34.3584C41.4085 34.3584 41.7469 35.0125 41.7469 35.3903V42.1098H44.6945L43.4918 41.2648V35.3903C43.4918 34.2243 42.8151 33.3224 40.8704 33.3224C40.1284 33.3224 38.9705 33.4931 37.7026 34.4397L36.72 35.2034V29.6783ZM17.1426 30.0317L18.3453 30.9011V41.2648L17.1426 42.1098H26.8335V39.8795L25.113 41.2689H20.0902V36.0728H23.5556L24.9214 37.1047V34.1675L23.5556 35.1994H20.0902V30.9011H24.9214L26.4788 32.0996V30.0317H17.1426ZM47.0388 31.0677C46.521 31.0677 46.0848 31.3643 46.0848 31.7461C46.0848 32.128 46.5251 32.453 47.0388 32.453C47.5647 32.453 47.9928 32.128 47.9928 31.7461C47.9928 31.3643 47.5647 31.0677 47.0388 31.0677ZM73.1924 31.0677C72.6664 31.0677 72.2384 31.3643 72.2384 31.7461C72.2384 32.128 72.6705 32.453 73.1924 32.453C73.7183 32.453 74.1464 32.128 74.1464 31.7461C74.1504 31.3643 73.7183 31.0677 73.1924 31.0677ZM30.6576 31.7461L27.1922 34.1675H28.9127V40.562C28.9127 41.5898 29.7689 42.3861 30.9879 42.3861C32.1294 42.3861 33.0141 41.7523 33.2546 41.2689L32.7369 40.9154C32.6268 41.0332 32.2721 41.6223 31.261 41.6223C30.837 41.6223 30.6617 41.4314 30.6617 41.4314V34.1675H33.2546V33.489H30.6617L30.6576 31.7461ZM54.573 33.3224C51.4949 33.3224 49.3586 35.4797 49.3586 37.8116C49.3667 40.1314 51.4949 42.3008 54.573 42.3008C57.6755 42.2967 59.7588 40.1314 59.7588 37.8116C59.7548 35.4837 57.6755 33.3184 54.573 33.3224ZM66.5306 33.3224C65.4951 33.3224 63.8725 33.4687 63.0652 34.5209V33.489L60.1176 34.3584L61.3203 35.2034V44.6977L60.1176 45.5671H64.1049L63.0693 44.6977V41.0779C63.9703 42.0773 65.5032 42.3008 66.5347 42.3008C69.0828 42.2967 70.685 39.8917 70.685 37.8116C70.681 35.565 69.0787 33.3224 66.5306 33.3224ZM80.5675 33.3224C79.4545 33.3224 77.8971 33.5621 77.1021 34.0009V35.9062L79.1488 34.4112C79.5483 34.1106 79.9805 34.005 80.5675 34.005C81.6316 34.005 82.4796 34.59 82.4796 35.3944V36.9422H80.0498C77.8197 36.9463 75.8994 38.356 75.8994 40.042C75.8994 41.4192 76.9187 42.3008 78.1377 42.3008C78.4231 42.3008 78.8838 42.2277 79.1732 42.1098L82.4755 40.7204V42.1098H85.4232L84.196 41.2648V35.3903C84.196 34.0578 82.9648 33.3224 80.5675 33.3224ZM92.6883 33.3224C92.0482 33.3224 90.8414 33.3793 89.4104 34.464L88.538 35.1994V33.489L85.5903 34.3584L86.8175 35.2034V41.2689L85.5903 42.1139H89.7692L88.542 41.2689V36.0728L89.5776 35.2034C90.6906 34.3218 91.559 34.3584 92.1705 34.3584C93.5689 34.3584 93.9195 34.9678 93.9195 35.3944V42.1139H96.8671L95.64 41.2689V35.3903C95.6359 34.5981 95.1181 33.3224 92.6883 33.3224ZM47.9928 33.489L45.0452 34.3584L46.2479 35.2034V41.2689L45.0452 42.1139H49.1955L47.9928 41.2689V33.489ZM74.1504 33.489L71.2028 34.3584L72.43 35.2034V41.2689L71.2028 42.1139H75.3817L74.1545 41.2689L74.1504 33.489ZM54.573 34.005C56.8805 34.005 57.6837 36.0037 57.6837 37.8157C57.6837 39.6154 56.8805 41.5979 54.573 41.5979C52.2899 41.5979 51.4623 39.6154 51.4623 37.8157C51.4623 36.0037 52.2899 34.005 54.573 34.005ZM65.8498 34.1675C68.0432 34.1634 68.6058 36.2028 68.6058 37.8116C68.6058 39.4123 68.0391 41.4314 65.8498 41.4314C64.6756 41.4354 63.6279 40.9845 63.0652 40.042V35.5569C63.6197 34.59 64.6756 34.1715 65.8498 34.1675ZM80.5675 37.6247H82.4796V39.8835L80.0498 40.9154C79.7807 41.0332 79.2507 41.2689 79.0142 41.2689C78.4883 41.2689 77.7871 40.9682 77.7871 39.8795C77.783 38.5022 78.9001 37.6247 80.5675 37.6247ZM55.8042 46.8712C54.679 46.8712 53.4722 47.249 53.1012 48.094C53.0237 48.2687 52.9789 48.4678 52.9667 48.6669C52.9748 49.2519 52.8077 50.1416 53.5415 50.7063L54.577 51.5229L55.5066 52.2298C55.6452 52.3191 55.8327 52.4329 55.8327 52.7213V53.4851L55.0948 54.0011H57.5532L56.8438 53.4851V52.6685C56.8438 52.2623 56.7867 51.9738 56.4076 51.6894L55.3721 50.8729C55.001 50.6088 55.0092 50.5804 54.7972 50.4382C54.7972 50.4382 55.633 50.4747 56.0244 50.4666C57.5899 50.491 58.3115 50.1091 58.5358 49.65C58.6581 49.3941 58.6948 49.0731 58.6703 48.5897C58.6458 48.0859 58.601 48.0087 58.4787 47.7731C58.1158 47.1109 57.0232 46.8712 55.8042 46.8712ZM61.6179 46.8712L59.8975 47.3871L60.6068 47.9031V48.3094H62.0256L60.4438 50.3488C60.2032 50.6738 60.0075 51.0435 60.0075 51.5473V53.477L59.2696 53.9929H61.728L61.0186 53.477V51.5473C61.0186 51.1247 61.1817 50.9216 61.2388 50.8404C61.3244 50.7266 61.3733 50.6657 61.4018 50.621C61.463 50.5397 61.5649 50.5113 61.5649 50.5113C61.8258 50.4422 63.9662 50.1457 63.9662 51.1897V53.3673C63.9662 53.7776 64.1742 53.9929 64.3739 53.9929C64.484 53.9929 64.5819 53.9848 64.7816 53.8832C64.9896 53.7817 65.4095 53.477 65.4095 53.477V53.9929H67.1299L66.4206 53.477V52.5792H65.9272L64.9977 53.1764V51.1085C64.9692 49.91 63.4729 49.8166 61.8299 50.0197L63.1672 48.3053V47.899H61.6098L61.6179 46.8712ZM69.6984 46.8712L67.9494 47.3871L68.6588 47.9031V48.3094H69.6943V50.0238H66.8283V51.0313L66.1189 51.5473H67.8679V50.43H69.6984V53.477L68.989 53.9929H71.4189L70.7095 53.477V50.43H72.54V51.5473H74.2891L73.5797 51.0313V50.0238H70.7136V48.3906C70.7136 47.9844 70.5301 47.899 70.2203 47.899H69.7025V46.8712H69.6984ZM77.4528 46.8712C76.3316 46.8712 75.1126 47.249 74.7497 48.094C74.6641 48.2687 74.6071 48.4678 74.5867 48.6669C74.603 49.2519 74.4562 50.1416 75.186 50.7063L76.2215 51.5229L77.1511 52.2298C77.2897 52.3191 77.4609 52.4329 77.4528 52.7213V53.4851L76.7434 54.0011H79.2018L78.4638 53.4851V52.6685C78.4638 52.2623 78.4108 51.9738 78.0276 51.6894L77.0165 50.8729C76.6455 50.6088 76.6537 50.5804 76.4417 50.4382C76.4417 50.4382 77.2571 50.4747 77.6444 50.4666C79.2181 50.491 79.9397 50.1091 80.1558 49.65C80.2047 49.5525 80.2414 49.4469 80.2659 49.325H80.7021V50.4422H82.4511L81.7417 49.9263V48.9187H80.3229V48.5937C80.2903 48.09 80.2536 48.0128 80.1313 47.7772C79.7685 47.1109 78.6799 46.8712 77.4528 46.8712ZM86.2182 46.8712L84.4977 47.3871L85.2071 47.9031C84.1593 47.9031 83.0667 48.3297 83.0219 49.3169C82.9811 50.2594 83.6701 50.7307 84.6037 50.7591L83.5682 51.1126C83.03 51.3238 82.6386 51.5594 82.6386 52.4735V53.481L81.9292 53.997H84.3876L83.6782 53.481V52.5548C83.6782 52.2623 83.6252 52.0307 84.0859 51.8763C84.0859 51.8763 85.7493 51.2994 85.835 51.2791C86.6463 51.336 87.3353 51.3847 87.3353 52.2866V53.4851L86.6259 54.0011H89.0843L88.3749 53.4851V52.2866C88.3749 51.1288 87.5228 50.9704 86.8175 50.8972C86.9113 50.8647 87.1722 50.7632 87.2537 50.7347C88.1792 50.3975 88.4034 50.0075 88.4279 49.3453V49.3169H88.8356V50.4341H90.556L89.8467 49.9182V48.9106H88.3708C88.224 48.3987 87.7022 47.9275 86.2141 47.9031L86.2182 46.8712ZM93.9725 46.8712C92.8514 46.8712 91.6609 47.249 91.298 48.094C91.2206 48.2687 91.1513 48.4678 91.135 48.6669C91.1431 49.2519 91.0086 50.1416 91.7343 50.7063L93.9725 52.502L90.7232 52.7742V53.481L90.0138 53.997H92.4437L91.7343 53.481V53.0992L95.4198 52.7742V52.3679L92.99 50.4382C92.99 50.4382 93.7972 50.4747 94.1927 50.4666C95.7582 50.491 96.4961 50.1091 96.7041 49.65C96.8264 49.3941 96.8916 49.0731 96.8671 48.5897C96.8427 48.0859 96.806 48.0087 96.6755 47.7731C96.3208 47.1109 95.1997 46.8712 93.9725 46.8712ZM55.8042 47.2815C56.8153 47.2693 57.594 47.4968 57.5777 48.5044V48.8862C57.5695 49.4306 57.3534 49.8735 56.5666 49.9466C55.5392 50.0278 55.213 50.0482 54.4099 49.975C53.9777 49.8897 54.047 49.1584 54.0552 48.9147V48.5897C54.0715 47.7365 54.7524 47.2896 55.8042 47.2815ZM77.4528 47.2815C78.4638 47.2693 79.214 47.4968 79.2018 48.5044V48.8862C79.1936 49.4306 78.9775 49.8735 78.1907 49.9466C77.1715 50.0278 76.8616 50.0482 76.0625 49.975C75.6385 49.8897 75.6915 49.1584 75.7078 48.9147V48.5897C75.716 47.7365 76.4091 47.2896 77.4528 47.2815ZM93.9725 47.2815C94.9836 47.2693 95.7623 47.4968 95.746 48.5044V48.8862C95.746 49.4306 95.5136 49.8735 94.7349 49.9466C93.7075 50.0278 93.4099 50.0482 92.6068 49.975C92.1827 49.8897 92.2439 49.1584 92.2521 48.9147V48.5897C92.2602 47.7365 92.9288 47.2896 93.9725 47.2815ZM85.7249 48.289C87.1151 48.2606 87.3801 48.7116 87.3638 49.1869C87.3557 49.4916 87.3597 49.78 86.683 50.0319C86.5525 50.0807 86.0306 50.2635 85.5903 50.4138C84.4488 50.3853 84.1145 50.2025 84.1145 49.2966C84.1145 48.4028 85.1541 48.3012 85.7249 48.289Z" fill="#C8332F"/>
<path d="M92.4232 31.934C97.9882 30.5243 111.919 23.0613 113.986 21.7369C115.005 21.1031 116.131 21.4809 114.333 24.402C113.105 26.1976 112.266 27.2417 108.992 28.2289C106.745 29.078 98.404 31.4952 92.5618 32.1981C92.1296 32.2387 91.991 32.0803 92.4232 31.934Z" fill="#FFCB08"/>
<path d="M92.9823 31.5433C97.8379 29.8451 108.409 24.2997 112.013 22.0977C114.606 20.5255 116.612 19.3636 117.395 17.3932C119.071 12.8919 117.786 11.0556 116.196 12.4653C114.166 14.4316 104.606 24.4256 92.3707 31.4498C92.1873 31.5514 92.1628 31.7951 92.9823 31.5433Z" fill="#5E8F4D"/>
</g>
<defs>
<clipPath id="clip0_1_21556">
<rect width="101" height="42" fill="white" transform="translate(17.3398 12)"/>
</clipPath>
</defs>
</svg>
